<svg width="48" height="48" viewBox="0 0 48 48" fill="none" xmlns="http://www.w3.org/2000/svg">
<g clip-path="url(#clip0_697_2)">
<path d="M31.2604 15.036C37.6864 0.390666 10.0126 0.27333 16.6248 14.9707C3.27998 5.03466 -4.09522 29.2 12.8168 28.3413C7.20978 30.296 5.35198 37.408 9.33358 41.6187C14.3554 46.3947 24.0532 43.352 24.0238 36.1C24.1344 43.3507 33.7538 46.4813 38.7798 41.7493C42.76 37.5867 40.8098 30.4413 35.2 28.44C40.0048 28.776 45.3038 26.1973 45 20.7773C45.3892 13.6253 36.187 10.256 31.2604 15.036ZM24.0434 30.1027C21.1818 30.0907 18.8522 27.796 18.8396 24.9787C18.827 22.1613 21.1356 19.8867 23.9972 19.8987C26.8588 19.9107 29.187 22.2067 29.1996 25.024C29.2122 27.8413 26.9036 30.116 24.0434 30.1027Z" fill="#FAFAFA"/>
</g>
<defs>
<clipPath id="clip0_697_2">
<rect width="42" height="40" fill="white" transform="translate(3 4)"/>
</clipPath>
</defs>
</svg>
