<?xml version="1.0" encoding="utf-8"?>
<!-- Generator: Adobe Illustrator 26.0.1, SVG Export Plug-In . SVG Version: 6.00 Build 0)  -->
<svg version="1.1" id="Calque_1" xmlns="http://www.w3.org/2000/svg" xmlns:xlink="http://www.w3.org/1999/xlink" x="0px" y="0px"
	 viewBox="0 0 48 48" style="enable-background:new 0 0 48 48;" xml:space="preserve">
<style type="text/css">
	.st0{opacity:0.2;fill:#2C281F;}
	.st1{fill:#2C281F;}
	.st2{fill:#CC0000;}
</style>
<g>
	<defs>
		<rect id="SVGID_1_" x="3" y="4" width="42" height="40"/>
	</defs>
	<clipPath id="SVGID_00000094605146380023688110000004975831511031487616_">
		<use xlink:href="#SVGID_1_"  style="overflow:visible;"/>
	</clipPath>
</g>
<path class="st0" d="M48,41.8c0,1.2-1,2.2-2.2,2.2L38,43.8c-8.7,6.4-30,6.9-28.2-9.4c0.2-1.7,0.5-3.2,0.9-4.5
	c2.8-9.1,10.2-10.7,13.3-11v0c0.9-0.1,1.5,0,1.5,0c21,0.5,14.3,20.4,14.3,20.4l6.2,0.3c0.6,0,1.1,0.3,1.5,0.7
	C47.8,40.6,48,41.2,48,41.8z"/>
<path id="XMLID_00000176016554902311655260000013219402753715540910_" class="st1" d="M21.7,35.2c0,0-3.4,0.3-2.8,4.2
	c0.6,3.9,2.5,5.1,5.2,4.2S24.6,34.7,21.7,35.2z"/>
<path class="st2" d="M24.1,18.9L24.1,18.9c-3.1,0.3-10.5,2-13.3,11c0,0-8.1,1.8-8.6-1.7c-0.5-3.5,3.8-4.5,3.8-4.5s-6.1-2.5-5.9-7.1
	c0.2-4.6,5.8-4.6,9.7-4c0,0-4-7.9,0-11.7C13.7-2.9,25.6,6.5,24.1,18.9z"/>
</svg>
