<?xml version="1.0" encoding="utf-8"?>
<!-- Generator: Adobe Illustrator 26.0.1, SVG Export Plug-In . SVG Version: 6.00 Build 0)  -->
<svg version="1.1" id="Calque_1" xmlns="http://www.w3.org/2000/svg" xmlns:xlink="http://www.w3.org/1999/xlink" x="0px" y="0px"
	 viewBox="0 0 37.3 43.4" style="enable-background:new 0 0 37.3 43.4;" xml:space="preserve">
<style type="text/css">
	.st0{fill:#2C281F;}
	.st1{fill:#FFFFFF;}
</style>
<g>
	<g>
		<path class="st0" d="M37.1,25.1c0.9-3.3-2.2-6.6-4.9-8.7c-1-0.9-2.2-1.7-3.6-2.4c0.6-1.2,1.1-3,0.9-5.2c-0.3-4.7-5.1-7.2-7.8-7.9
			c-1.2-0.4-2.5-0.7-4.3-0.8c-2.5-0.1-5,0.9-6.9,2.8C8.8,4.6,8,6.9,8.2,9c0.1,1.2,0.4,2.3,0.9,3.6c-3.1,1.7-6.9,4.2-8.4,7.1
			c-1.5,3-0.4,4.7,0.4,5.5c1.6,1.6,4,1.5,5.6,1.1c-0.1,0.2-0.3,0.4-0.4,0.6c-2.9,4.3-5,7.8-4.3,10.4c0,0.1,0,0.3,0.2,0.5
			c0.6,1.6,1.8,3,3.4,3.9c1.9,1.1,4.3,1.7,6.5,1.7c1.1,0,2-0.1,2.8-0.4c2.2-0.7,3.8-2.9,4.8-4.9c1.1,1.8,2.6,3.2,4.5,4.1
			c1.8,0.8,3.5,0.9,4.4,0.9h1.1c1.6,0,6.6,0,6.9-4.2c0.2-3.1-1-4.9-2.8-7.7L33.6,31c-0.4-0.7-0.9-1.5-1.3-2.2
			C36,28.3,36.9,26.1,37.1,25.1z M34.5,24.4c-0.6,2.1-4,2-5.8,1.8c0.5,1.2,1.5,3.3,2.6,5.1l0.2,0.2c1.7,2.5,2.5,3.9,2.3,6.1
			C33.7,40,30.5,40,29,40h-1c-0.8,0-2.1-0.1-3.4-0.7c-1.4-0.6-2.8-1.7-3.8-3.6c-0.6-0.9-1.1-1.8-1.6-2.8c-0.7,2.2-2.3,6.3-4.9,7.1
			c-0.7,0.2-1.4,0.3-2.1,0.3c-1.7,0-3.7-0.5-5.2-1.4c-1.1-0.8-2-1.8-2.3-2.9c-0.1,0-0.1,0-0.1-0.1C4.1,34.1,6,31,8.5,27.5
			c0.7-1,1.4-2,1.6-2.4c0.4-0.9,0.4-1.7,0.1-1.8c-0.1-0.2-0.6-0.1-1.1,0.2c-1.6,0.8-4.5,1.3-5.6,0.1c-0.5-0.5-0.9-1.4,0-3
			c1.7-3.1,7-5.9,8.8-6.8c-0.5-0.8-1.5-2.3-1.6-4.3c-0.1-1.6,0.6-3.2,1.7-4.5c1.3-1.4,3.1-2.1,5.1-2c1.5,0,2.6,0.3,3.6,0.7
			c0.3,0.1,5.8,1.6,6.1,5.8c0.2,2.9-1,4.9-1.7,5.7c2.1,0.9,3.8,1.9,4.9,2.9C30.9,18.5,35.1,21.7,34.5,24.4z"/>
	</g>
	<g>
		<path class="st1" d="M34.5,24.4c-0.6,2.1-4,2-5.8,1.8c0.5,1.2,1.5,3.3,2.6,5.1l0.2,0.2c1.7,2.5,2.5,3.9,2.3,6.1
			C33.7,40,30.5,40,29,40h-1c-0.8,0-2.1-0.1-3.4-0.7c-1.4-0.6-2.8-1.7-3.8-3.6c-0.6-0.9-1.1-1.8-1.6-2.8c-0.7,2.2-2.3,6.3-4.9,7.1
			c-0.7,0.2-1.4,0.3-2.1,0.3c-1.7,0-3.7-0.5-5.2-1.4c-1.1-0.8-2-1.8-2.3-2.9c-0.1,0-0.1,0-0.1-0.1C4.1,34.1,6,31,8.5,27.5
			c0.7-1,1.4-2,1.6-2.4c0.4-0.9,0.4-1.7,0.1-1.8c-0.1-0.2-0.6-0.1-1.1,0.2c-1.6,0.8-4.5,1.3-5.6,0.1c-0.5-0.5-0.9-1.4,0-3
			c1.7-3.1,7-5.9,8.8-6.8c-0.5-0.8-1.5-2.3-1.6-4.3c-0.1-1.6,0.6-3.2,1.7-4.5c1.3-1.4,3.1-2.1,5.1-2c1.5,0,2.6,0.3,3.6,0.7
			c0.3,0.1,5.8,1.6,6.1,5.8c0.2,2.9-1,4.9-1.7,5.7c2.1,0.9,3.8,1.9,4.9,2.9C30.9,18.5,35.1,21.7,34.5,24.4z"/>
	</g>
</g>
<g>
	<g>
		<path class="st0" d="M24,14.2c-0.5-0.2-1-0.4-1.5-0.6c0.6-1,1.5-2.9,1.4-5.4c0-1-0.3-1.7-0.6-2.5c1.1,0.8,2.1,1.8,2.2,3.4
			C25.7,12,24.5,13.6,24,14.2z"/>
		<path class="st0" d="M18.1,30.7c-0.6,2-2.2,6.8-4.4,7.4c-1.8,0.5-4.5,0.1-6.3-1c-0.3,0-0.4-0.1-0.6-0.2c2.4,0.6,4.9,0,5.1,0h0.2
			l0.1-0.1c0.1-0.1,2.1-2,3.7-5l0.1-0.2c0.5-1.1,1.1-2.1,1.2-2.2c0,0,0.2,0.1,0.7,0.9C17.9,30.3,18,30.5,18.1,30.7z"/>
		<path class="st0" d="M32.7,23.5c-0.4,1.5-4.1,1.2-5.5,0.9l-1.1-0.2l0.4,1c0.1,0.1,1.3,3.5,3.2,6.2l0.2,0.2
			c1.6,2.4,2.3,3.5,2.1,5.3c-0.1,1.2-1.9,1.3-3.7,1.3h-0.7c-0.8,0-2.4,0-3.8-1h0.7c0.5,0,1.1,0.1,1.5,0.1c1.9,0,3.7-0.4,3.8-2.4
			c0.1-1.5-1.2-3.4-2.7-5.6c-1.1-1.5-2.2-3.2-2.8-4.6c-0.5-1.3-0.4-1.8-0.2-2c0.3-0.2,1.2-0.1,2.1,0.5c1.3,0.8,2.6,0.9,3.6,0.5
			c0.5-0.2,1.3-0.8,1.4-1.9c0.1-0.3,0.1-0.7,0.1-1C32.3,21.7,32.9,22.7,32.7,23.5z"/>
	</g>
</g>
</svg>
