<?xml version="1.0" encoding="utf-8"?>
<!-- Generator: Adobe Illustrator 26.0.1, SVG Export Plug-In . SVG Version: 6.00 Build 0)  -->
<svg version="1.1" id="Calque_1" xmlns="http://www.w3.org/2000/svg" xmlns:xlink="http://www.w3.org/1999/xlink" x="0px" y="0px"
	 viewBox="0 0 48 43.4" style="enable-background:new 0 0 48 43.4;" xml:space="preserve">
<style type="text/css">
	.st0{fill:#2C281F;}
	.st1{fill:#FFFFFF;}
</style>
<g>
	<path class="st0" d="M46.6,32.1C46,30.8,45,29.7,43.8,29l-0.7-10.7c2.8-0.5,4.9-3,4.9-5.9c0-2.6-1.6-4.8-4-5.7L25.9,0.3
		c-0.7-0.2-1.3-0.3-2-0.3s-1.4,0.1-2.1,0.4L4,6.8c-2.4,0.8-4,3.1-4,5.7c0,3,2.2,5.5,5.1,6v10.2c-1.6,0.6-2.9,1.8-3.6,3.3l-0.7,1.5
		c-1,2.1-0.9,4.6,0.3,6.6c1.3,2,3.5,3.2,5.8,3.2h34.3c2.4,0,4.5-1.2,5.8-3.2s1.4-4.5,0.4-6.6L46.6,32.1z"/>
	<path class="st1" d="M44.1,33.4c-0.6-1.2-1.7-2-3-2.3l-1-15.4H42c1.8,0,3.2-1.4,3.2-3.2c0-1.4-0.8-2.6-2.1-3L25,3
		c-0.7-0.2-1.5-0.2-2.2,0L5,9.5c-1.3,0.5-2.1,1.7-2.1,3c0,1.8,1.4,3.2,3.2,3.2H8V31H7.6C6,31,4.7,31.9,4,33.3l-0.7,1.5
		c-0.6,1.3-0.5,2.7,0.2,3.9c0.8,1.2,2,1.9,3.4,1.9h34.3c1.4,0,2.7-0.7,3.4-1.9s0.8-2.6,0.2-3.9L44.1,33.4z M12.1,10.7l14.2-5.2
		l16.1,5.8c0.5,0.2,0.9,0.7,0.9,1.3c0,0.1,0,0.2,0,0.3l-6.5,1H10.7C10.2,12.6,10.8,11.2,12.1,10.7z M35.9,15.7V31h-1.7l-1-15.3H35.9
		z M29,15.7V31h-1.8l-1-15.3H29z M22,15.7V31h-1.9l-1-15.3H22z M15,15.7V31h-1.9l-1-15.3H15z M43,37.7c-0.1,0.1-0.2,0.2-0.3,0.3
		l-31-1.2c-2.1-0.1-3.5-2-3.1-3.9h31.9c0.8,0,1.6,0.5,1.9,1.2l0.7,1.5C43.4,36.3,43.4,37.1,43,37.7z"/>
</g>
</svg>
