<?xml version="1.0" encoding="utf-8"?>
<!-- Generator: Adobe Illustrator 26.0.1, SVG Export Plug-In . SVG Version: 6.00 Build 0)  -->
<svg version="1.1" id="Calque_1" xmlns="http://www.w3.org/2000/svg" xmlns:xlink="http://www.w3.org/1999/xlink" x="0px" y="0px"
	 viewBox="0 0 29.7 43.4" style="enable-background:new 0 0 29.7 43.4;" xml:space="preserve">
<style type="text/css">
	.st0{fill:#FFFFFF;}
	.st1{fill:#2C281F;}
</style>
<g>
	<path class="st0" d="M25.7,23.5c-0.7-1-1.5-1.7-2.6-2.3c-1.1-0.6-2.2-1.1-3.4-1.4c-1.2-0.3-2.4-0.6-3.6-0.9
		c-1.2-0.2-2.2-0.5-3.2-0.8c-1-0.3-1.7-0.6-2.3-1c-0.5-0.4-0.8-0.9-0.8-1.6c0-0.5,0.2-0.9,0.5-1.3c0.4-0.4,0.9-0.7,1.6-0.9
		c0.7-0.2,1.6-0.3,2.6-0.3c0.8,0,1.6,0.1,2.3,0.3c0.7,0.2,1.2,0.5,1.7,0.9c0.5,0.4,0.8,0.9,1.1,1.5c0.3,0.6,0.4,1.2,0.4,2l5.8-1.6
		c-0.1-1.6-0.6-2.9-1.5-4.1c-0.9-1.2-2.1-2.1-3.8-2.7c-1.1-0.5-2.4-0.7-3.9-0.9l1-5.1h-6.1l0.9,5.2C11,8.3,9.7,8.6,8.6,9.1
		C7,9.7,5.8,10.7,5,11.9c-0.8,1.2-1.2,2.6-1.2,4.2c0,1.4,0.3,2.6,0.9,3.5c0.6,0.9,1.4,1.7,2.5,2.3c1,0.6,2.2,1.1,3.5,1.4
		c1.3,0.4,2.6,0.7,4,1c1.1,0.3,2.2,0.5,3.1,0.8c0.9,0.3,1.6,0.6,2.1,1c0.5,0.4,0.7,0.9,0.7,1.4c0,0.5-0.2,1-0.6,1.4
		c-0.4,0.4-1,0.8-1.7,1.1c-0.8,0.3-1.7,0.4-2.8,0.4c-1.2,0-2.2-0.2-3.2-0.5c-1-0.4-1.7-0.9-2.3-1.6c-0.6-0.7-0.9-1.6-1-2.8l-5.7,1.8
		c0.1,1.3,0.5,2.5,1,3.5c0.6,1,1.4,1.8,2.4,2.4c1,0.6,2.2,1.1,3.6,1.4c0.7,0.2,1.4,0.3,2.1,0.3l-1,5.4h6.1l-1-5.3
		c1.9-0.1,3.5-0.4,4.9-0.9c1.7-0.6,3-1.6,3.9-2.7c0.9-1.2,1.3-2.6,1.3-4.2C26.7,25.7,26.3,24.4,25.7,23.5z"/>
	<path class="st1" d="M28.2,21.7c-0.7-1.1-1.6-1.9-2.7-2.7l1-0.3l2.4-0.7l-0.1-2.4c-0.1-2.2-0.8-4.1-2.1-5.8
		c-1.2-1.6-2.9-2.8-5.1-3.7c-0.5-0.2-1-0.4-1.5-0.5l0.4-2.2L21.2,0H7.8l0.7,3.6l0.4,2.2c-0.5,0.1-1,0.3-1.4,0.5
		c-2.1,0.9-3.8,2.2-5,3.8c-1.2,1.7-1.8,3.7-1.8,5.9c0,2,0.5,3.8,1.4,5.2c0.6,1,1.4,1.8,2.4,2.5l-2.1,0.7L0,25.1l0.2,2.4
		c0.2,1.8,0.6,3.4,1.5,4.8c0.8,1.4,2,2.6,3.4,3.4c1.1,0.7,2.4,1.3,3.8,1.6l-0.4,2.4l-0.7,3.6h13.4l-0.7-3.6l-0.4-2.2
		c0.8-0.2,1.6-0.4,2.3-0.7c2.3-0.8,4.1-2.1,5.3-3.8c1.3-1.7,1.9-3.7,1.9-6C29.7,25.1,29.2,23.2,28.2,21.7z M25.3,31.4
		c-0.9,1.2-2.2,2.1-3.9,2.7c-1.4,0.5-3,0.8-4.9,0.9l1,5.3h-6.1l1-5.4c-0.7-0.1-1.5-0.2-2.1-0.3c-1.4-0.3-2.6-0.8-3.6-1.4
		c-1-0.6-1.8-1.5-2.4-2.4c-0.6-1-0.9-2.1-1-3.5l5.7-1.8c0.1,1.1,0.4,2,1,2.8c0.6,0.7,1.3,1.3,2.3,1.6c0.9,0.4,2,0.5,3.2,0.5
		c1.1,0,2.1-0.1,2.8-0.4c0.8-0.3,1.3-0.6,1.7-1.1c0.4-0.4,0.6-0.9,0.6-1.4c0-0.6-0.3-1.1-0.7-1.4c-0.5-0.4-1.2-0.7-2.1-1
		c-0.9-0.3-1.9-0.5-3.1-0.8c-1.4-0.3-2.7-0.6-4-1c-1.3-0.4-2.4-0.8-3.5-1.4c-1-0.6-1.9-1.3-2.5-2.3C4,18.6,3.7,17.4,3.7,16
		c0-1.6,0.4-3,1.2-4.2C5.8,10.7,7,9.7,8.6,9.1c1.1-0.5,2.4-0.7,3.8-0.9L11.5,3h6.1l-1,5.1c1.5,0.1,2.8,0.4,3.9,0.9
		c1.6,0.7,2.9,1.6,3.8,2.7c0.9,1.2,1.4,2.5,1.5,4.1l-5.8,1.6c0-0.7-0.1-1.4-0.4-2c-0.2-0.6-0.6-1.1-1.1-1.5c-0.5-0.4-1-0.7-1.7-0.9
		c-0.7-0.2-1.4-0.3-2.3-0.3c-1,0-1.9,0.1-2.6,0.3c-0.7,0.2-1.2,0.5-1.6,0.9C10,14.6,9.8,15,9.8,15.5c0,0.6,0.3,1.1,0.8,1.6
		c0.5,0.4,1.3,0.8,2.3,1c1,0.3,2,0.6,3.2,0.8c1.1,0.3,2.3,0.5,3.6,0.9c1.2,0.3,2.4,0.8,3.4,1.4c1.1,0.6,1.9,1.4,2.6,2.3
		c0.7,1,1,2.2,1,3.8C26.7,28.8,26.2,30.2,25.3,31.4z"/>
</g>
</svg>
