<?xml version="1.0" encoding="utf-8"?>
<!-- Generator: Adobe Illustrator 26.0.1, SVG Export Plug-In . SVG Version: 6.00 Build 0)  -->
<svg version="1.1" id="Calque_1" xmlns="http://www.w3.org/2000/svg" xmlns:xlink="http://www.w3.org/1999/xlink" x="0px" y="0px"
	 viewBox="0 0 29.8 43.4" style="enable-background:new 0 0 29.8 43.4;" xml:space="preserve">
<style type="text/css">
	.st0{fill:#FFFFFF;}
	.st1{fill:#2C281F;}
</style>
<g>
	<path class="st0" d="M25.6,35.3h-6.2c-0.6,0-1.1,0.5-1.1,1.1v2.8c0,0.6-0.5,1.1-1.1,1.1h-4.6c-0.6,0-1.1-0.5-1.1-1.1v-2.8
		c0-0.6-0.5-1.1-1.1-1.1H4.2c-0.8,0-1.3-0.9-0.9-1.6L7.7,26c0.4-0.7-0.1-1.6-0.9-1.6H6.6c-0.8,0-1.3-0.9-0.9-1.6l4-7.1
		c0.4-0.7-0.1-1.6-0.9-1.6h0c-0.9,0-1.4-1-0.9-1.7L14,3.6c0.2-0.3,0.5-0.5,0.9-0.5s0.7,0.1,0.9,0.5l6.1,8.7c0.5,0.7,0,1.7-0.9,1.7
		c-0.6,0-1.1,0.5-1.1,1.1c0,0.2,0,0.4,0.1,0.5l4.1,7.1c0.4,0.7-0.1,1.6-0.9,1.6H23c-0.8,0-1.3,0.9-0.9,1.6l4.4,7.7
		C26.9,34.4,26.4,35.3,25.6,35.3z"/>
	<path class="st1" d="M29.2,32.1L26,26.4c0.3-0.3,0.6-0.6,0.8-1c0.8-1.3,0.8-2.9,0-4.2L23.9,16c0.3-0.3,0.6-0.7,0.8-1.1
		c0.7-1.4,0.6-3.1-0.3-4.4l-6.1-8.8C17.5,0.7,16.2,0,14.9,0c-1.4,0-2.7,0.7-3.5,1.8l-6.1,8.8c-0.9,1.3-1,3-0.3,4.4
		c0.2,0.4,0.5,0.8,0.9,1.1l-2.9,5.1c-0.7,1.3-0.7,2.9,0,4.2c0.2,0.4,0.5,0.7,0.8,1l-3.2,5.7c-0.7,1.3-0.7,2.9,0,4.2
		c0.7,1.3,2.2,2.1,3.7,2.1h4.1v0.7c0,2.3,1.9,4.2,4.2,4.2h4.6c2.3,0,4.2-1.9,4.2-4.2v-0.7h4.1c1.5,0,2.9-0.8,3.7-2.1
		C30,35,30,33.4,29.2,32.1z M25.6,35.3h-6.2c-0.6,0-1.1,0.5-1.1,1.1v2.8c0,0.6-0.5,1.1-1.1,1.1h-4.6c-0.6,0-1.1-0.5-1.1-1.1v-2.8
		c0-0.6-0.5-1.1-1.1-1.1H4.2c-0.8,0-1.3-0.9-0.9-1.6L7.7,26c0.4-0.7-0.1-1.6-0.9-1.6H6.6c-0.8,0-1.3-0.9-0.9-1.6l4-7.1
		c0.4-0.7-0.1-1.6-0.9-1.6h0c-0.9,0-1.4-1-0.9-1.7L14,3.6c0.2-0.3,0.5-0.5,0.9-0.5s0.7,0.1,0.9,0.5l6.1,8.7c0.5,0.7,0,1.7-0.9,1.7
		c-0.6,0-1.1,0.5-1.1,1.1c0,0.2,0,0.4,0.1,0.5l4.1,7.1c0.4,0.7-0.1,1.6-0.9,1.6H23c-0.8,0-1.3,0.9-0.9,1.6l4.4,7.7
		C26.9,34.4,26.4,35.3,25.6,35.3z"/>
</g>
<path class="st1" d="M16.4,7.2l3.1,4.6c0.1,0.2,0.1,0.4-0.1,0.6l-1.6,1.6c-0.3,0.3-0.7,0.1-0.8-0.2l-1.5-6.1
	C15.4,7.1,16.1,6.8,16.4,7.2z"/>
<path class="st1" d="M18.4,17.3l3.1,4.6c0.1,0.2,0.1,0.4-0.1,0.6L19.8,24c-0.3,0.3-0.7,0.1-0.8-0.2l-1.5-6.1
	C17.4,17.2,18.1,16.9,18.4,17.3z"/>
<path class="st1" d="M20.1,26.9l3.1,4.6c0.1,0.2,0.1,0.4-0.1,0.6l-1.6,1.6c-0.3,0.3-0.7,0.1-0.8-0.2l-1.5-6.1
	C19.1,26.8,19.8,26.5,20.1,26.9z"/>
</svg>
