<svg width="48" height="49" viewBox="0 0 48 49" fill="none" xmlns="http://www.w3.org/2000/svg">
<g clip-path="url(#clip0_3303_141)">
<rect width="48" height="48" transform="translate(0 0.328568)" fill="white"/>
<path d="M6.35421 43.1148C6.93241 42.5771 7.46854 41.9982 7.95817 41.3829C9.02378 40.3417 9.91734 39.1331 11.1661 38.2645C11.5213 37.9192 11.8765 37.7249 12.2317 37.4012C12.3327 37.3114 12.3959 37.1884 12.4093 37.0559C11.8543 37.2286 11.6989 37.5954 11.1661 37.7465C11.1423 37.7472 11.1186 37.7433 11.0964 37.735C11.0742 37.7266 11.054 37.714 11.0369 37.6979C11.0198 37.6818 11.0062 37.6625 10.997 37.6412C10.9877 37.6199 10.9829 37.597 10.983 37.5739C11.3437 37.4012 11.6989 37.0343 12.0541 36.8833C12.0303 36.8833 12.0068 36.8786 11.9848 36.8696C11.9629 36.8606 11.9431 36.8474 11.9265 36.8308C11.91 36.8142 11.897 36.7945 11.8884 36.7729C11.8798 36.7514 11.8758 36.7284 11.8765 36.7052C10.6277 36.5326 9.73974 37.4012 8.84618 38.0918C8.66858 38.2645 8.49098 37.9192 8.29117 37.9192C6.86481 38.4587 5.7992 39.6511 4.37284 40.169V39.9964C3.81784 40.169 3.30169 40.5359 2.59128 40.6923C1.82827 40.8293 1.05247 40.8871 0.276903 40.865C-0.794257 41.0376 -2.03747 41.2103 -3.10863 41.4045H-3.28624C-3.90819 41.5592 -4.50699 41.7913 -5.0678 42.0951L-5.2454 42.2678C-5.44589 42.4887 -5.68675 42.6717 -5.95581 42.8073C-6.51081 43.1526 -7.02696 43.6705 -7.55976 44.0158H-7.73737C-8.22652 44.5255 -8.76349 44.9897 -9.34132 45.4024H-9.69654V45.2298C-9.67777 45.0989 -9.61538 44.9776 -9.51893 44.8845C-9.34133 44.7118 -9.34134 44.5392 -9.16374 44.5392C-8.98613 44.3665 -8.98613 44.1885 -8.80852 43.9997V43.827H-8.98613C-8.49598 43.3712 -7.95843 42.9662 -7.38216 42.6185C-7.40596 42.6185 -7.42951 42.6138 -7.45143 42.6048C-7.47335 42.5958 -7.49318 42.5826 -7.50975 42.566C-7.52631 42.5494 -7.53928 42.5297 -7.54787 42.5081C-7.55647 42.4866 -7.56051 42.4635 -7.55976 42.4404L-7.38216 42.2678C-7.55976 42.4404 -7.73736 42.4404 -7.93716 42.6185C-8.13696 42.7965 -8.29792 43.3091 -8.65312 43.158H-9.00834V42.9853C-9.00911 42.9625 -9.00503 42.9397 -8.99638 42.9184C-8.98773 42.8971 -8.97468 42.8778 -8.95803 42.8616C-8.94138 42.8454 -8.92149 42.8327 -8.8996 42.8243C-8.8777 42.8159 -8.85426 42.8119 -8.83073 42.8127V42.64C-8.83147 42.6169 -8.82743 42.5939 -8.81884 42.5723C-8.81025 42.5507 -8.79728 42.5311 -8.78071 42.5145C-8.76415 42.4979 -8.74432 42.4847 -8.7224 42.4756C-8.70048 42.4666 -8.67692 42.462 -8.65312 42.462V42.2894C-8.45163 42.0672 -8.2087 41.8841 -7.93716 41.7498L-6.87156 41.2103L-6.66066 41.0376C-7.22527 41.1955 -7.76496 41.4279 -8.26463 41.7282H-8.61982L-8.06482 41.1887C-7.88722 41.1887 -7.88721 41.1887 -7.88721 41.3614C-4.86244 39.1115 -0.588913 39.6295 2.97422 38.4155C3.32942 38.2429 3.52923 38.0702 3.86779 37.876C4.42279 37.7034 4.7558 37.1854 5.29415 37.0128C6.01456 36.4776 6.56793 35.7585 6.89257 34.9356C6.89331 34.9125 6.88925 34.8894 6.88066 34.8678C6.87207 34.8463 6.85912 34.8266 6.84255 34.81C6.82599 34.7934 6.80615 34.7802 6.78424 34.7712C6.76232 34.7622 6.73876 34.7575 6.71496 34.7575C5.49644 36.04 4.04842 37.0966 2.44142 37.876C0.482251 38.9173 -1.83211 38.7446 -3.79128 38.9173C-3.71875 38.8488 -3.63091 38.7976 -3.53462 38.7677C-3.43834 38.7377 -3.33621 38.7298 -3.23627 38.7446C-3.23627 38.394 -3.05868 38.394 -2.88108 38.2051H-1.80992C-1.78639 38.2059 -1.76295 38.2019 -1.74105 38.1935C-1.71916 38.1851 -1.69927 38.1724 -1.68262 38.1562C-1.66597 38.14 -1.65291 38.1207 -1.64426 38.0994C-1.6356 38.0781 -1.63154 38.0553 -1.63232 38.0325C-1.45471 38.0325 -1.0773 37.8598 -1.2771 37.8598C-1.63231 37.5145 -2.16512 38.2051 -2.70347 37.8598C-2.52587 37.6872 -2.52587 37.3203 -2.34272 37.3203H-1.98751C-1.96874 37.1894 -1.90637 37.0681 -1.80992 36.975C-0.383558 36.1064 1.03726 35.4158 2.28602 34.7198C1.93081 34.7198 1.73101 35.0705 1.57561 34.8978C1.75321 34.8978 1.57562 34.5471 1.75322 34.5471C2.81883 34.2018 3.71238 33.6839 4.77798 33.3386C4.42278 33.3386 4.06759 33.6839 3.71238 33.3386C3.88999 33.1659 4.06759 32.9879 4.26739 32.9879V32.6426C4.31449 32.6426 4.35966 32.6244 4.39296 32.592C4.42627 32.5596 4.445 32.5157 4.445 32.4699C4.445 32.4241 4.42627 32.3802 4.39296 32.3479C4.35966 32.3155 4.31449 32.2973 4.26739 32.2973C4.44499 32.1246 4.62259 32.1246 4.82239 31.952C4.64479 31.952 4.46718 31.952 4.46718 31.7793C4.62211 31.6061 4.81422 31.4681 5.02998 31.3748C5.24573 31.2816 5.47988 31.2355 5.71594 31.2398C5.53834 31.0618 5.36075 31.2398 5.36075 31.0618C5.35998 31.0389 5.36404 31.0161 5.37269 30.9948C5.38134 30.9735 5.39441 30.9542 5.41105 30.938C5.4277 30.9218 5.44759 30.9091 5.46949 30.9007C5.49138 30.8923 5.51482 30.8884 5.53836 30.8891H5.36075C5.25771 30.8001 5.19241 30.677 5.17759 30.5438C5.73259 29.8532 5.7326 28.9846 6.07116 28.294C5.89355 28.294 5.89355 28.294 5.89355 28.1213C4.99999 29.1572 3.39603 29.5079 1.97522 29.8532H1.42021C1.15938 29.9527 0.877539 29.989 0.599052 29.9589C0.320565 29.9288 0.0537991 29.8333 -0.178205 29.6806C-0.538958 29.5079 -0.733202 29.141 -1.07175 28.9846C-1.76862 28.4997 -2.55406 28.1481 -3.38613 27.9487C-5.77717 27.2798 -8.25788 26.9634 -10.7455 27.0099C-9.67433 26.4704 -8.60873 26.4704 -7.35997 26.1466C-5.75601 25.6071 -4.15204 25.1054 -2.55363 25.278C-2.90883 25.1054 -3.26404 25.278 -3.44164 25.278C-4.868 25.1054 -6.1112 25.6287 -7.53756 25.8175C-8.43112 25.9902 -9.31913 26.3571 -10.3903 26.5081C-10.9453 26.6808 -11.2783 27.1987 -11.9887 27.1987V26.8534C-11.1007 25.8175 -9.85194 24.6036 -8.43113 24.6036C-6.64956 24.2583 -5.0456 24.6036 -3.43608 24.7762C-2.23288 24.9231 -1.04209 25.1539 0.127058 25.4669C0.682063 25.4669 0.682049 26.1628 1.01505 26.3355C1.57006 26.5081 2.08622 26.3355 2.79663 26.6808C2.79663 26.5081 2.61903 26.3355 2.79663 26.1413C3.15183 25.796 3.69019 26.3139 4.04539 25.9686C4.7558 25.4291 3.32942 24.7547 2.97422 24.0641C2.97345 24.0412 2.97752 24.0184 2.98618 23.9971C2.99483 23.9758 3.00787 23.9565 3.02452 23.9403C3.04117 23.9241 3.06106 23.9114 3.08296 23.903C3.10485 23.8946 3.12829 23.8907 3.15182 23.8914C3.80242 24.6554 4.58804 25.3003 5.47174 25.796C6.02675 25.9686 7.07017 26.3355 6.89257 25.6233C6.28362 24.6278 5.56732 23.6982 4.7558 22.8501V22.5048C4.57819 22.5048 4.57819 22.3322 4.40059 22.3322V21.9869C4.04538 21.8088 4.04538 21.4473 3.84558 21.1182C3.49038 20.5787 3.66799 20.0823 3.49039 19.3864C3.57963 18.8123 3.57963 18.2285 3.49039 17.6545C3.10449 16.1724 2.80614 14.67 2.59682 13.1548C2.41922 11.4229 3.66798 10.0363 4.55599 8.47708C5.27194 7.44119 5.98235 6.22725 7.23111 5.53665C7.64792 4.46434 8.24841 3.46834 9.00714 2.59083C9.72309 1.72758 10.9663 1.20424 12.0375 0.686293C12.8512 0.354334 13.6831 0.066147 14.5294 -0.176956H33.5883C33.7838 -0.158572 33.9731 -0.0997076 34.1433 -0.00431126L35.5697 0.686293C36.3177 1.01048 36.9413 1.55622 37.3512 2.24553C37.5288 2.59083 37.9062 3.11417 37.7064 3.45947C37.5288 3.999 37.3512 4.66801 36.996 4.84066C36.7001 5.00113 36.3731 5.09984 36.0358 5.1305C35.6984 5.16115 35.3582 5.12308 35.0369 5.01871C34.6817 5.01871 34.3265 4.84066 33.9657 4.84066C35.3921 5.38019 36.8184 6.0546 37.7064 7.26854C37.9516 7.48475 38.269 7.60739 38.6 7.61383C38.7776 7.61383 38.7776 7.78649 38.7776 7.95914C38.6 8.13179 38.4224 8.30444 38.4224 8.49867H38.7776C39.3326 8.32602 39.1328 7.46277 39.8432 7.63542C39.9695 7.69474 40.0808 7.78024 40.1695 7.88588C40.2581 7.99153 40.3218 8.11477 40.3562 8.24693C40.3906 8.3791 40.3948 8.51698 40.3685 8.65089C40.3422 8.78479 40.286 8.91147 40.204 9.02201C39.8914 9.3583 39.5307 9.64905 39.1328 9.88526C39.0497 9.98221 39.0042 10.1044 39.0042 10.2305C39.0042 10.3567 39.0497 10.4789 39.1328 10.5759C39.488 10.9265 39.488 11.2718 39.6878 11.6171C40.0486 12.3077 40.0485 13.0037 40.4037 13.6943C40.7962 15.0445 41.0198 16.4357 41.0698 17.8379C41.0698 18.5339 40.7146 19.2245 40.8922 19.9151C41.1376 20.6035 41.4996 21.2472 41.9633 21.8196C42.3578 22.313 42.714 22.8341 43.0289 23.3789C43.5839 24.2475 44.6329 25.2834 44.1001 26.3247C43.7393 27.0153 42.6737 26.8642 42.1409 27.1879C41.5859 27.7275 41.9633 28.4019 42.3185 28.9198C42.8735 29.7885 41.7635 30.3064 41.0698 30.6517C41.2474 30.997 41.6248 30.8244 41.7802 30.997C41.9633 31.5366 42.3352 31.693 42.1409 32.211C41.7802 32.7505 40.537 33.0742 41.2474 33.9428C41.3937 34.277 41.454 34.6408 41.4231 35.0028C41.3921 35.3648 41.2709 35.7139 41.0698 36.02C40.9182 36.3791 40.6751 36.6948 40.3635 36.9373C40.0518 37.1799 39.6818 37.3414 39.2882 37.4066C38.7064 37.5496 38.106 37.6078 37.5066 37.5793C37.4341 37.5108 37.3463 37.4596 37.25 37.4296C37.1537 37.3997 37.0516 37.3918 36.9516 37.4066C35.3477 37.234 33.7437 36.7106 32.1397 36.7106C31.7194 36.8066 31.3044 36.9237 30.8965 37.0613C30.5413 37.4066 30.003 37.7519 29.8254 38.0972L29.6478 38.2699C29.6485 38.2927 29.6445 38.3155 29.6358 38.3368C29.6272 38.3581 29.6141 38.3774 29.5975 38.3936C29.5808 38.4098 29.5609 38.4225 29.539 38.4309C29.5171 38.4393 29.4937 38.4433 29.4702 38.4425V38.6152C29.1745 38.9207 28.9342 39.2728 28.7598 39.6565V39.8291C28.4577 40.3811 28.2301 40.9686 28.0827 41.5772C27.3722 43.6544 27.7275 45.5589 28.2603 45.8934C28.4434 46.0661 31.4682 46.9347 33.4274 47.7979C34.2284 48.0791 35.0028 48.4275 35.7417 48.8392H-3.44164C-1.66007 47.6253 0.121501 46.9347 2.79107 45.7207C2.79107 45.1812 5.46621 43.9889 6.35421 43.1256M-8.25352 36.3707C-8.43112 36.3707 -8.80852 36.5434 -8.80852 36.1981C-8.63092 35.6585 -8.09257 35.6585 -7.73737 35.5075C-7.55977 35.3348 -7.18236 35.1622 -7.02696 35.3348C-6.84936 35.6801 -6.47195 35.5075 -6.311 35.6801C-6.86601 36.3707 -7.55977 36.2197 -8.27572 36.3707M-22.8779 34.2935L-23.0555 34.1209C-21.9051 32.6412 -20.8769 31.0753 -19.9808 29.4378C-18.7591 28.7658 -17.6723 27.8848 -16.7728 26.8372C-15.2468 25.1675 -13.4394 23.7627 -11.4281 22.6829C-11.0235 22.5402 -10.5926 22.4818 -10.1633 22.5116C-9.73396 22.5413 -9.31588 22.6585 -8.93618 22.8555C-9.29138 23.2008 -9.64658 23.2008 -10.0018 23.395C-10.1849 23.395 -10.1849 23.3951 -10.3625 23.2224C-10.1849 23.0498 -10.1849 23.0498 -10.1849 22.8771C-11.073 23.9184 -12.4993 24.4363 -13.2097 25.6503C-13.7647 26.5135 -14.1033 27.7275 -15.3465 28.0728C-15.7017 28.2454 -15.1689 27.7275 -15.5241 27.9001C-18.5544 29.8047 -20.5191 31.8818 -22.828 34.3043M-14.9913 28.2454L-15.3465 28.5907C-15.5241 28.7634 -15.5241 28.936 -15.7017 28.936C-15.8793 28.936 -15.8793 28.936 -15.8793 28.7634C-15.7466 28.4075 -15.4969 28.1041 -15.1689 27.9001C-15.0679 27.99 -15.0047 28.113 -14.9913 28.2454ZM-10.5512 42.0951C-10.5512 42.2678 -10.7288 42.2678 -10.7288 42.4404C-10.5512 42.4404 -10.5512 42.4404 -10.5512 42.6185C-10.7517 42.8394 -10.9926 43.0223 -11.2617 43.158H-11.4392L-11.7945 43.5033C-11.9721 43.6759 -12.5104 43.5033 -12.3495 43.3306L-11.6335 42.64C-11.4559 42.462 -11.2783 42.462 -11.2783 42.2894L-11.1007 42.1167C-10.9231 42.1167 -10.3903 41.9441 -10.5457 42.1167M-12.1497 41.4261C-12.461 41.7146 -12.8216 41.9482 -13.2153 42.1167C-13.5705 42.2893 -14.1088 42.462 -14.464 42.6562H-14.6416C-14.9709 42.8428 -15.2701 43.0755 -15.5296 43.3468L-15.7072 43.5195L-15.8848 43.6921L-16.068 43.8648C-16.0672 43.8876 -16.0713 43.9104 -16.0799 43.9317C-16.0886 43.953 -16.1016 43.9723 -16.1183 43.9885C-16.1349 44.0047 -16.1548 44.0174 -16.1767 44.0258C-16.1986 44.0342 -16.2221 44.0382 -16.2456 44.0374H-16.8006L-17.1558 44.3827L-17.7108 44.9223L-17.3556 44.577L-17.178 44.3989L-17.0004 44.2263C-16.8228 44.0536 -16.8228 43.881 -16.6452 43.881L-16.4676 43.7083C-16.4684 43.6854 -16.4643 43.6627 -16.4556 43.6414C-16.447 43.6201 -16.4339 43.6007 -16.4173 43.5846C-16.4006 43.5684 -16.3808 43.5557 -16.3589 43.5473C-16.337 43.5389 -16.3135 43.5349 -16.29 43.5357C-16.2908 43.5128 -16.2867 43.49 -16.2781 43.4687C-16.2694 43.4474 -16.2563 43.4281 -16.2397 43.4119C-16.223 43.3957 -16.2032 43.383 -16.1813 43.3746C-16.1594 43.3662 -16.1359 43.3623 -16.1124 43.363V43.1904V43.0177C-15.9292 42.8451 -15.9292 42.6724 -15.7516 42.4782C-15.9292 42.4782 -15.9292 42.6562 -16.1124 42.8289C-16.29 42.8289 -16.4676 42.8289 -16.29 42.6562L-16.1124 42.4782L-15.5574 41.9387C-15.3798 41.9387 -15.3798 41.766 -15.2022 41.766L-15.0246 41.5934C-14.1366 40.7301 -12.5326 40.7301 -11.2838 40.2068C-10.7288 40.0341 -10.2182 40.3794 -9.67989 40.2068C-9.37295 40.1799 -9.06457 40.2399 -8.79188 40.3794C-10.751 40.3794 -11.4615 40.9189 -12.1774 41.4207M-10.2182 35.0165C-10.3958 34.8385 -9.85749 35.0165 -9.85749 34.8385H-10.751C-10.7746 34.8392 -10.798 34.8352 -10.8199 34.8268C-10.8418 34.8184 -10.8617 34.8057 -10.8783 34.7896C-10.895 34.7734 -10.9081 34.754 -10.9167 34.7328C-10.9254 34.7115 -10.9294 34.6887 -10.9286 34.6658C-11.4408 34.8647 -11.9822 34.9831 -12.5326 35.0165C-13.243 35.1891 -13.7758 35.7071 -14.4918 35.8797C-15.5574 36.225 -16.4509 37.0937 -17.5166 37.439C-17.5401 37.4397 -17.5635 37.4358 -17.5854 37.4274C-17.6073 37.419 -17.6272 37.4063 -17.6439 37.3901C-17.6605 37.3739 -17.6736 37.3546 -17.6822 37.3333C-17.6909 37.312 -17.6949 37.2892 -17.6942 37.2663C-17.5166 36.921 -17.1392 36.921 -16.9838 36.5703C-16.9838 36.3977 -16.9838 36.3977 -17.1614 36.3977C-16.451 35.3618 -15.3798 34.8385 -14.3142 33.9752V33.6299C-13.9534 33.2846 -13.5982 33.0904 -13.4206 32.5886C-13.22 32.2211 -12.9107 31.9204 -12.5326 31.7254C-12.7102 31.5527 -12.8878 31.5527 -12.8878 31.3801C-13.243 31.3801 -13.5982 31.5527 -13.9534 31.202C-13.7758 31.0294 -13.5982 30.8567 -13.3984 30.8567C-13.422 30.8575 -13.4454 30.8535 -13.4673 30.8451C-13.4892 30.8367 -13.5091 30.824 -13.5257 30.8078C-13.5424 30.7917 -13.5554 30.7723 -13.5641 30.751C-13.5727 30.7297 -13.5768 30.707 -13.576 30.6841C-13.7536 30.5114 -13.3984 30.3388 -13.021 30.1446C-12.6436 29.9503 -12.133 29.9719 -11.9499 29.7993C-12.6658 29.6266 -13.3762 29.9719 -14.0922 29.6266C-13.5372 28.4127 -12.8434 27.3714 -11.7722 26.8534C-11.5946 26.8534 -11.4171 26.8534 -11.4171 27.0261C-11.3952 27.2333 -11.458 27.4405 -11.5919 27.603C-11.7259 27.7655 -11.9202 27.8703 -12.133 27.8947C-11.417 28.0674 -10.529 28.0674 -9.81308 28.4343C-9.90691 28.5336 -10.0356 28.5952 -10.1738 28.6069C-9.61883 28.9522 -9.10268 28.7795 -8.56988 29.1464C-8.92508 29.4971 -9.12488 29.1464 -9.45789 29.1464C-6.43311 30.0151 -3.40279 30.7057 -0.910816 32.4376C-2.98756 33.4116 -5.21192 34.0547 -7.49872 34.3421C-7.85392 34.3421 -8.05371 34.3421 -8.21467 34.1694C-8.21467 34.3421 -8.21467 34.5147 -8.39227 34.5147C-8.69993 34.4697 -9.01411 34.5308 -9.28028 34.6874C-9.29351 34.7816 -9.33212 34.8708 -9.3922 34.9458C-9.45229 35.0208 -9.53171 35.0791 -9.62242 35.1147C-9.71313 35.1503 -9.81189 35.162 -9.90873 35.1485C-10.0056 35.1351 -10.097 35.097 -10.1738 35.0381" fill="white"/>
<path d="M6.35422 43.1149C6.93242 42.5772 7.46855 41.9983 7.95818 41.3831C9.02379 40.3418 9.91735 39.1332 11.1661 38.2646C11.5213 37.9193 11.8765 37.725 12.2317 37.4013C12.3327 37.3115 12.396 37.1885 12.4093 37.056C11.8543 37.2287 11.6989 37.5956 11.1661 37.7466C11.1423 37.7473 11.1186 37.7434 11.0964 37.7351C11.0743 37.7267 11.054 37.7141 11.0369 37.698C11.0198 37.6819 11.0063 37.6626 10.997 37.6413C10.9877 37.62 10.983 37.5971 10.983 37.574C11.3437 37.4013 11.6989 37.0344 12.0541 36.8834C12.0303 36.8834 12.0068 36.8788 11.9848 36.8697C11.9629 36.8607 11.9431 36.8475 11.9265 36.8309C11.91 36.8143 11.897 36.7946 11.8884 36.7731C11.8798 36.7515 11.8758 36.7285 11.8765 36.7053C10.6278 36.5327 9.73975 37.4013 8.84619 38.0919C8.66859 38.2646 8.49099 37.9193 8.29119 37.9193C6.86482 38.4588 5.79922 39.6512 4.37285 40.1691V39.9965C3.81785 40.1691 3.3017 40.536 2.59129 40.6924C1.82828 40.8294 1.05248 40.8873 0.276913 40.8651C-0.794247 41.0377 -2.03746 41.2104 -3.10862 41.4046H-3.28623C-3.90818 41.5593 -4.50698 41.7915 -5.06779 42.0952L-5.24539 42.2679C-5.44588 42.4888 -5.68675 42.6718 -5.9558 42.8074C-6.5108 43.1527 -7.02695 43.6706 -7.55976 44.0159H-7.73736C-8.22651 44.5256 -8.76348 44.9898 -9.34132 45.4025H-9.69653V45.2299C-9.67776 45.099 -9.61537 44.9777 -9.51892 44.8846C-9.34132 44.7119 -9.34133 44.5393 -9.16373 44.5393C-8.98613 44.3666 -8.98612 44.1886 -8.80852 43.9998V43.8271H-8.98612C-8.49598 43.3713 -7.95843 42.9663 -7.38215 42.6186C-7.40595 42.6186 -7.42951 42.6139 -7.45142 42.6049C-7.47334 42.5959 -7.49317 42.5827 -7.50974 42.5661C-7.52631 42.5495 -7.53927 42.5298 -7.54787 42.5082C-7.55646 42.4867 -7.5605 42.4637 -7.55976 42.4405L-7.38215 42.2679C-7.55975 42.4405 -7.73735 42.4405 -7.93715 42.6186C-8.13696 42.7966 -8.29791 43.3092 -8.65312 43.1581H-9.00833V42.9854C-9.0091 42.9626 -9.00502 42.9398 -8.99637 42.9185C-8.98772 42.8972 -8.97467 42.8779 -8.95802 42.8617C-8.94137 42.8455 -8.92149 42.8328 -8.89959 42.8244C-8.87769 42.816 -8.85425 42.8121 -8.83072 42.8128V42.6402C-8.83147 42.617 -8.82742 42.594 -8.81883 42.5724C-8.81024 42.5509 -8.79727 42.5312 -8.78071 42.5146C-8.76414 42.498 -8.74431 42.4848 -8.72239 42.4757C-8.70047 42.4667 -8.67691 42.4621 -8.65312 42.4621V42.2895C-8.45162 42.0673 -8.20869 41.8842 -7.93715 41.7499L-6.87155 41.2104L-6.66065 41.0377C-7.22526 41.1956 -7.76495 41.428 -8.26462 41.7283H-8.61982L-8.06481 41.1888C-7.88721 41.1888 -7.88721 41.1888 -7.88721 41.3615C-4.86243 39.1116 -0.588903 39.6296 2.97423 38.4156C3.32943 38.243 3.52924 38.0703 3.8678 37.8761C4.4228 37.7035 4.75581 37.1855 5.29416 37.0129C6.01457 36.4777 6.56794 35.7586 6.89258 34.9357C6.89332 34.9126 6.88926 34.8895 6.88067 34.8679C6.87208 34.8464 6.85913 34.8267 6.84256 34.8101C6.826 34.7935 6.80617 34.7803 6.78425 34.7713C6.76233 34.7623 6.73877 34.7576 6.71497 34.7576C5.49645 36.0401 4.04843 37.0968 2.44143 37.8761C0.482261 38.9174 -1.8321 38.7448 -3.79127 38.9174C-3.71874 38.8489 -3.6309 38.7977 -3.53461 38.7678C-3.43833 38.7378 -3.3362 38.7299 -3.23626 38.7448C-3.23626 38.3941 -3.05867 38.3941 -2.88107 38.2052H-1.80991C-1.78638 38.206 -1.76294 38.202 -1.74104 38.1936C-1.71915 38.1852 -1.69926 38.1725 -1.68261 38.1563C-1.66596 38.1401 -1.6529 38.1208 -1.64425 38.0995C-1.63559 38.0782 -1.63153 38.0554 -1.63231 38.0326C-1.4547 38.0326 -1.07729 37.8599 -1.27709 37.8599C-1.6323 37.5146 -2.16511 38.2052 -2.70346 37.8599C-2.52586 37.6873 -2.52586 37.3204 -2.34271 37.3204H-1.9875C-1.96873 37.1895 -1.90636 37.0682 -1.80991 36.9751C-0.383549 36.1065 1.03727 35.4159 2.28603 34.7199C1.93083 34.7199 1.73102 35.0706 1.57562 34.8979C1.75322 34.8979 1.57563 34.5472 1.75323 34.5472C2.81884 34.2019 3.71239 33.684 4.778 33.3387C4.42279 33.3387 4.0676 33.684 3.7124 33.3387C3.89 33.166 4.0676 32.988 4.2674 32.988V32.6427C4.3145 32.6427 4.35967 32.6245 4.39297 32.5921C4.42628 32.5597 4.44501 32.5158 4.44501 32.47C4.44501 32.4242 4.42628 32.3803 4.39297 32.348C4.35967 32.3156 4.3145 32.2974 4.2674 32.2974C4.445 32.1247 4.6226 32.1247 4.82241 31.9521C4.6448 31.9521 4.46719 31.9521 4.46719 31.7794C4.62212 31.6062 4.81424 31.4682 5.02999 31.375C5.24574 31.2817 5.47989 31.2356 5.71596 31.2399C5.53835 31.0619 5.36076 31.2399 5.36076 31.0619C5.35999 31.039 5.36405 31.0162 5.3727 30.9949C5.38135 30.9736 5.39442 30.9543 5.41106 30.9381C5.42771 30.9219 5.4476 30.9092 5.4695 30.9008C5.4914 30.8924 5.51483 30.8885 5.53837 30.8892H5.36076C5.25772 30.8002 5.19242 30.6771 5.1776 30.5439C5.7326 29.8533 5.73261 28.9847 6.07117 28.2941C5.89356 28.2941 5.89356 28.2941 5.89356 28.1214C5 29.1573 3.39604 29.508 1.97523 29.8533H1.42022C1.15939 29.9528 0.877549 29.9891 0.599062 29.959C0.320575 29.9289 0.0538091 29.8334 -0.178195 29.6807C-0.538949 29.508 -0.733192 29.1411 -1.07175 28.9847C-1.76861 28.4998 -2.55405 28.1482 -3.38612 27.9488C-5.77716 27.2799 -8.25787 26.9635 -10.7455 27.01C-9.67432 26.4705 -8.60872 26.4705 -7.35996 26.1468C-5.756 25.6072 -4.15203 25.1055 -2.55362 25.2781C-2.90882 25.1055 -3.26403 25.2781 -3.44163 25.2781C-4.86799 25.1055 -6.11119 25.6288 -7.53755 25.8176C-8.43111 25.9903 -9.31912 26.3572 -10.3903 26.5082C-10.9453 26.6809 -11.2783 27.1988 -11.9887 27.1988V26.8535C-11.1007 25.8176 -9.85193 24.6037 -8.43112 24.6037C-6.64955 24.2584 -5.04559 24.6037 -3.43607 24.7763C-2.23287 24.9232 -1.04208 25.154 0.127068 25.467C0.682073 25.467 0.682059 26.1629 1.01506 26.3356C1.57007 26.5082 2.08623 26.3356 2.79664 26.6809C2.79664 26.5082 2.61904 26.3356 2.79664 26.1414C3.15184 25.7961 3.6902 26.314 4.0454 25.9687C4.75581 25.4292 3.32943 24.7548 2.97423 24.0642C2.97346 24.0413 2.97753 24.0185 2.98619 23.9972C2.99484 23.9759 3.00788 23.9566 3.02453 23.9404C3.04118 23.9242 3.06107 23.9115 3.08297 23.9031C3.10486 23.8947 3.1283 23.8908 3.15183 23.8915C3.80243 24.6555 4.58805 25.3004 5.47175 25.7961C6.02676 25.9687 7.07018 26.3356 6.89258 25.6234C6.28364 24.6279 5.56733 23.6983 4.75581 22.8502V22.5049C4.57821 22.5049 4.5782 22.3323 4.4006 22.3323V21.987C4.04539 21.8089 4.04539 21.4475 3.84559 21.1183C3.49039 20.5788 3.668 20.0825 3.4904 19.3865C3.57964 18.8124 3.57964 18.2286 3.4904 17.6546C3.1045 16.1725 2.80615 14.6701 2.59683 13.1549C2.41923 11.423 3.66799 10.0364 4.556 8.47719C5.27195 7.44129 5.98236 6.22735 7.23113 5.53676C7.64793 4.46444 8.24842 3.46844 9.00715 2.59094C9.7231 1.72769 10.9663 1.20435 12.0375 0.6864C12.8512 0.354441 13.6831 0.0662538 14.5294 -0.176849H-51V48.8231H-4.69039C-2.90882 47.6092 -1.12725 46.9186 1.54788 45.7047C2.79109 45.1651 5.46622 43.9728 6.35422 43.1095M-8.25351 36.3546C-8.43111 36.3546 -8.80852 36.5273 -8.80852 36.182C-8.63091 35.6425 -8.09256 35.6425 -7.73736 35.4914C-7.55976 35.3187 -7.18236 35.1461 -7.02696 35.3187C-6.84935 35.664 -6.47195 35.4914 -6.31099 35.664C-6.866 36.3546 -7.55976 36.2036 -8.27572 36.3546M-22.8779 34.2775L-23.0555 34.1048C-21.9058 32.6303 -20.8777 31.0698 -19.9808 29.4379C-18.7591 28.7659 -17.6723 27.8849 -16.7728 26.8373C-15.2468 25.1676 -13.4394 23.7628 -11.4281 22.683C-11.0235 22.5403 -10.5926 22.4819 -10.1633 22.5117C-9.73395 22.5414 -9.31587 22.6586 -8.93617 22.8556C-9.29138 23.2009 -9.64657 23.2009 -10.0018 23.3952C-10.1849 23.3952 -10.1849 23.3952 -10.3625 23.2225C-10.1849 23.0499 -10.1849 23.0499 -10.1849 22.8772C-11.0729 23.9185 -12.4993 24.4365 -13.2097 25.6504C-13.7647 26.5136 -14.1033 27.7276 -15.3465 28.0729C-15.7017 28.2455 -15.1689 27.7276 -15.5241 27.9002C-18.2039 29.7549 -20.6547 31.9038 -22.8279 34.3044M-14.9913 28.2455L-15.3465 28.5908C-15.5241 28.7635 -15.5241 28.9361 -15.7017 28.9361C-15.8793 28.9361 -15.8793 28.9361 -15.8793 28.7635C-15.7466 28.4076 -15.4969 28.1042 -15.1689 27.9002C-15.0679 27.9901 -15.0046 28.1131 -14.9913 28.2455ZM-10.5512 42.0952C-10.5512 42.2679 -10.7288 42.2679 -10.7288 42.4405C-10.5512 42.4405 -10.5512 42.4405 -10.5512 42.6186C-10.7517 42.8395 -10.9926 43.0225 -11.2616 43.1581H-11.4392L-11.7944 43.5034C-11.972 43.676 -12.5104 43.5034 -12.3495 43.3307L-11.6335 42.6402C-11.4559 42.4621 -11.2783 42.4621 -11.2783 42.2895L-11.1007 42.1168C-10.9231 42.1168 -10.3903 41.9442 -10.5457 42.1168M-12.1497 41.4262C-12.461 41.7147 -12.8216 41.9483 -13.2153 42.1168C-13.5705 42.2895 -14.1088 42.4621 -14.464 42.6563H-14.6416C-14.9709 42.8429 -15.2701 43.0756 -15.5296 43.3469L-15.7072 43.5196L-15.8848 43.6922L-16.068 43.8649C-16.0672 43.8878 -16.0713 43.9105 -16.0799 43.9318C-16.0886 43.9531 -16.1016 43.9724 -16.1183 43.9886C-16.1349 44.0048 -16.1548 44.0175 -16.1767 44.0259C-16.1986 44.0343 -16.222 44.0383 -16.2456 44.0375H-16.8006L-17.1558 44.3828L-17.7108 44.9224L-17.3556 44.5771L-17.178 44.399L-17.0004 44.2264C-16.8228 44.0537 -16.8228 43.8811 -16.6452 43.8811L-16.4676 43.7084C-16.4684 43.6855 -16.4643 43.6628 -16.4556 43.6415C-16.447 43.6202 -16.4339 43.6009 -16.4173 43.5847C-16.4006 43.5685 -16.3808 43.5558 -16.3589 43.5474C-16.337 43.539 -16.3135 43.535 -16.29 43.5358C-16.2908 43.5129 -16.2867 43.4901 -16.278 43.4688C-16.2694 43.4475 -16.2563 43.4282 -16.2397 43.412C-16.223 43.3958 -16.2031 43.3831 -16.1813 43.3747C-16.1594 43.3663 -16.1359 43.3624 -16.1124 43.3631V43.1905V43.0178C-15.9292 42.8452 -15.9292 42.6725 -15.7516 42.4783C-15.9292 42.4783 -15.9292 42.6563 -16.1124 42.829C-16.29 42.829 -16.4676 42.829 -16.29 42.6563L-16.1124 42.4783L-15.5574 41.9388C-15.3798 41.9388 -15.3798 41.7661 -15.2022 41.7661L-15.0246 41.5935C-14.1366 40.7302 -12.5326 40.7302 -11.2838 40.2069C-10.7288 40.0342 -10.2182 40.3795 -9.67988 40.2069C-9.37294 40.18 -9.06456 40.24 -8.79187 40.3795C-10.751 40.3795 -11.4614 40.919 -12.1774 41.4208M-10.2182 35.0166C-10.3958 34.8386 -9.85748 35.0166 -9.85748 34.8386H-10.751C-10.7746 34.8393 -10.798 34.8354 -10.8199 34.8269C-10.8418 34.8185 -10.8617 34.8059 -10.8783 34.7897C-10.895 34.7735 -10.908 34.7542 -10.9167 34.7329C-10.9254 34.7116 -10.9294 34.6888 -10.9286 34.6659C-11.4408 34.8648 -11.9822 34.9832 -12.5326 35.0166C-13.243 35.1893 -13.7758 35.7072 -14.4918 35.8799C-15.5574 36.2252 -16.4509 37.0938 -17.5165 37.4391C-17.5401 37.4398 -17.5635 37.4359 -17.5854 37.4275C-17.6073 37.4191 -17.6272 37.4064 -17.6438 37.3902C-17.6605 37.374 -17.6736 37.3547 -17.6822 37.3334C-17.6909 37.3121 -17.6949 37.2893 -17.6942 37.2664C-17.5166 36.9212 -17.1391 36.9211 -16.9837 36.5705C-16.9837 36.3978 -16.9838 36.3978 -17.1614 36.3978C-16.4509 35.3619 -15.3798 34.8386 -14.3142 33.9753V33.63C-13.9534 33.2847 -13.5982 33.0905 -13.4206 32.5887C-13.22 32.2212 -12.9107 31.9205 -12.5326 31.7255C-12.7102 31.5528 -12.8878 31.5528 -12.8878 31.3802C-13.243 31.3802 -13.5982 31.5528 -13.9534 31.2021C-13.7758 31.0295 -13.5982 30.8568 -13.3984 30.8568C-13.422 30.8576 -13.4454 30.8536 -13.4673 30.8452C-13.4892 30.8368 -13.5091 30.8241 -13.5257 30.8079C-13.5424 30.7918 -13.5554 30.7724 -13.5641 30.7511C-13.5727 30.7299 -13.5768 30.7071 -13.576 30.6842C-13.7536 30.5115 -13.3984 30.3389 -13.021 30.1447C-12.6436 29.9504 -12.133 29.972 -11.9498 29.7994C-12.6658 29.6267 -13.3762 29.972 -14.0922 29.6267C-13.5372 28.4128 -12.8434 27.3715 -11.7722 26.8535C-11.5946 26.8535 -11.417 26.8535 -11.417 27.0262C-11.3952 27.2334 -11.458 27.4406 -11.5919 27.6031C-11.7259 27.7656 -11.9202 27.8704 -12.133 27.8948C-11.417 28.0675 -10.529 28.0675 -9.81307 28.4344C-9.9069 28.5337 -10.0356 28.5953 -10.1738 28.607C-9.61882 28.9523 -9.10267 28.7797 -8.56987 29.1465C-8.92507 29.4972 -9.12488 29.1465 -9.45788 29.1465C-6.4331 30.0152 -3.40278 30.7058 -0.910806 32.4377C-2.98755 33.4117 -5.21192 34.0548 -7.49871 34.3422C-7.85392 34.3422 -8.05371 34.3422 -8.21466 34.1695C-8.21466 34.3422 -8.21466 34.5148 -8.39226 34.5148C-8.69992 34.4698 -9.0141 34.5309 -9.28027 34.6875C-9.2935 34.7817 -9.33211 34.8709 -9.3922 34.9459C-9.45228 35.0209 -9.5317 35.0792 -9.62241 35.1148C-9.71312 35.1504 -9.81188 35.1621 -9.90872 35.1486C-10.0056 35.1352 -10.097 35.0971 -10.1738 35.0382" fill="#000091"/>
<path d="M87.7512 -0.17144H33.6049C33.8005 -0.153056 33.9897 -0.0941833 34.1599 0.001213L35.5863 0.691809C36.3344 1.016 36.9579 1.56173 37.3679 2.25105C37.5455 2.59634 37.9229 3.11969 37.7231 3.46499C37.5455 4.00451 37.3679 4.67353 37.0127 4.84618C36.7168 5.00664 36.3898 5.10536 36.0524 5.13601C35.7151 5.16667 35.3749 5.1286 35.0535 5.02422C34.6983 5.02422 34.3431 4.84618 33.9824 4.84618C35.4087 5.38571 36.8351 6.06012 37.7231 7.27406C37.9683 7.49026 38.2857 7.61291 38.6166 7.61936C38.7942 7.61936 38.7942 7.79201 38.7942 7.96466C38.6166 8.13731 38.439 8.30996 38.439 8.50419H38.7942C39.3492 8.33154 39.1495 7.46829 39.8599 7.64094C39.9861 7.70027 40.0975 7.78575 40.1861 7.89139C40.2747 7.99704 40.3385 8.12027 40.3729 8.25244C40.4073 8.3846 40.4114 8.52249 40.3851 8.65639C40.3588 8.7903 40.3027 8.91699 40.2206 9.02753C39.9081 9.36383 39.5473 9.65455 39.1495 9.89077C39.0664 9.98771 39.0209 10.1099 39.0209 10.2361C39.0209 10.3622 39.0664 10.4844 39.1495 10.5814C39.5047 10.9321 39.5047 11.2774 39.7045 11.6227C40.0652 12.3133 40.0652 13.0092 40.4204 13.6998C40.8067 15.0489 41.0248 16.4383 41.0698 17.838C41.0698 18.534 40.7146 19.2246 40.8922 19.9152C41.1376 20.6036 41.4996 21.2474 41.9633 21.8198C42.3578 22.3131 42.714 22.8343 43.0289 23.379C43.5839 24.2476 44.6329 25.2835 44.1001 26.3248C43.7393 27.0154 42.6737 26.8643 42.1409 27.1881C41.5859 27.7276 41.9633 28.402 42.3185 28.92C42.8735 29.7886 41.7635 30.3065 41.0698 30.6518C41.2474 30.9971 41.6248 30.8245 41.7802 30.9971C41.9633 31.5367 42.3352 31.6931 42.1409 32.2111C41.7802 32.7506 40.537 33.0743 41.2474 33.943C41.3937 34.2771 41.454 34.641 41.4231 35.0029C41.3921 35.3649 41.2709 35.714 41.0698 36.0202C40.9182 36.3792 40.6751 36.6949 40.3635 36.9374C40.0518 37.18 39.6818 37.3415 39.2882 37.4067C38.7064 37.5497 38.106 37.6079 37.5066 37.5794C37.4341 37.5109 37.3463 37.4597 37.25 37.4297C37.1537 37.3998 37.0516 37.3919 36.9516 37.4067C35.3477 37.2341 33.7437 36.7107 32.1397 36.7107C31.7194 36.8067 31.3044 36.9238 30.8965 37.0614C30.5413 37.4067 30.003 37.752 29.8254 38.0973L29.6478 38.27C29.6485 38.2929 29.6445 38.3156 29.6358 38.3369C29.6272 38.3582 29.6141 38.3775 29.5975 38.3937C29.5808 38.4099 29.5609 38.4226 29.539 38.431C29.5171 38.4394 29.4937 38.4434 29.4702 38.4426V38.6153C29.1745 38.9208 28.9342 39.2729 28.7598 39.6566V39.8292C28.4577 40.3812 28.2301 40.9687 28.0827 41.5773C27.3722 43.6545 27.7275 45.559 28.2603 45.8935C28.4434 46.0662 31.4682 46.9348 33.4274 47.7981C34.2284 48.0793 35.0028 48.4277 35.7417 48.8393H89.0222V-0.17144H87.7512Z" fill="#E1000F"/>
<path d="M36.8129 17.66C37.1681 17.8327 37.7009 17.8326 37.7009 18.0053C37.5233 18.7013 36.4577 18.8739 35.7417 19.7372H35.5641C35.2089 19.9098 35.3865 20.4332 35.0091 20.4332C34.6539 20.2605 34.4541 20.4332 34.1155 20.6058C34.2807 20.813 34.5006 20.9726 34.7519 21.0676C35.0031 21.1627 35.2762 21.1895 35.5419 21.1454C35.634 21.1516 35.7206 21.19 35.7859 21.2535C35.8511 21.3169 35.8906 21.4011 35.8971 21.4906C35.9206 21.4914 35.9441 21.4874 35.966 21.479C35.9879 21.4706 36.0078 21.4579 36.0244 21.4418C36.0411 21.4256 36.0541 21.4062 36.0628 21.385C36.0714 21.3637 36.0755 21.3409 36.0747 21.318C36.2579 21.318 36.2579 21.318 36.2579 21.4906V21.6633C35.8971 22.014 35.5419 21.8359 35.1867 22.014C35.8878 22.1873 36.6224 22.1873 37.3235 22.014C37.8785 21.8359 37.3235 20.9727 37.6787 20.4548C37.5011 20.4548 37.6787 20.1095 37.5011 20.1095C37.6787 19.9314 37.8563 19.5699 38.0561 19.5699C38.2559 19.5699 38.6111 19.3973 38.6111 19.2246C38.6111 19.052 38.2559 18.8793 38.2559 18.6851C38.8109 18.3398 39.3215 17.8165 39.1439 17.1259C38.9663 16.7806 38.2559 16.7806 37.7175 16.5863C37.1778 16.4722 36.6145 16.5328 36.1136 16.759C35.5586 16.759 35.2256 17.1043 34.6928 17.1043C34.0502 17.2853 33.4467 17.5777 32.9112 17.9675C33.5993 17.707 34.3164 17.5259 35.048 17.428C35.7584 17.6006 36.1136 17.428 36.8295 17.6006" fill="#9C9B9B"/>
</g>
<defs>
<clipPath id="clip0_3303_141">
<rect width="48" height="48" fill="white" transform="translate(0 0.328568)"/>
</clipPath>
</defs>
</svg>
