<svg width="245" height="50" viewBox="0 0 245 50" fill="none" xmlns="http://www.w3.org/2000/svg">
<path d="M2.472 26V9.2H8.016C11.712 9.2 13.968 11.096 13.968 14.216C13.968 17.312 11.712 19.208 8.016 19.208H5.88V26H2.472ZM8.16 12.032H5.88V16.376H8.16C9.6 16.376 10.464 15.536 10.464 14.168C10.464 12.896 9.6 12.032 8.16 12.032ZM24.8663 8.72C30.1463 8.72 33.7703 12.8 33.7703 17.6C33.7703 22.4 30.1463 26.48 24.8663 26.48C19.5623 26.48 15.9383 22.4 15.9383 17.6C15.9383 12.8 19.5623 8.72 24.8663 8.72ZM24.8663 23.288C28.0103 23.288 30.2663 20.816 30.2663 17.6C30.2663 14.384 28.0103 11.912 24.8663 11.912C21.6983 11.912 19.4423 14.384 19.4423 17.6C19.4423 20.816 21.6983 23.288 24.8663 23.288ZM37.2767 26V9.2H40.6847V22.904H47.0687V26H37.2767ZM50.3079 26V9.2H53.7159V26H50.3079ZM56.9237 12.296V9.2H70.6997V12.296H65.5157V26H62.1077V12.296H56.9237ZM73.9329 26V9.2H77.3409V26H73.9329ZM82.2767 26V9.2H85.6847V16.544L92.9327 9.2H97.1807L90.1487 16.304L97.1807 26H93.0047L87.7967 18.656L85.6847 20.792V26H82.2767ZM101.209 26.288C100.033 26.288 99.0973 25.352 99.0973 24.2C99.0973 23.072 100.033 22.112 101.209 22.112C102.337 22.112 103.321 23.072 103.321 24.2C103.321 25.352 102.337 26.288 101.209 26.288ZM105.928 21.584V16.64H103.672V13.904H105.928V10.88H109V13.904H112.696V16.64H109V21.584C109 22.928 109.72 23.456 110.92 23.456C111.76 23.456 112.312 23.36 112.72 23.192V25.856C112.12 26.12 111.4 26.24 110.392 26.24C107.368 26.24 105.928 24.536 105.928 21.584ZM126.327 24.032C125.199 25.544 123.327 26.48 121.047 26.48C116.751 26.48 114.327 23.48 114.327 19.952C114.327 16.376 116.583 13.424 120.543 13.424C123.903 13.424 126.111 15.704 126.111 18.872C126.111 19.544 126.015 20.168 125.919 20.576H117.447C117.735 22.832 119.127 23.744 121.023 23.744C122.343 23.744 123.495 23.168 124.143 22.304L126.327 24.032ZM120.471 15.92C118.911 15.92 117.879 16.784 117.543 18.368H123.111C123.063 17.144 122.175 15.92 120.471 15.92ZM127.87 24.248L129.886 22.424C130.63 23.36 131.518 24.032 132.67 24.032C133.654 24.032 134.158 23.456 134.158 22.736C134.158 20.624 128.374 21.416 128.374 17.168C128.374 15.032 130.174 13.424 132.694 13.424C134.542 13.424 136.222 14.312 137.086 15.488L135.07 17.264C134.446 16.496 133.654 15.872 132.718 15.872C131.758 15.872 131.302 16.4 131.302 17.024C131.302 19.088 137.086 18.368 137.086 22.544C137.038 25.088 134.998 26.48 132.718 26.48C130.558 26.48 129.022 25.616 127.87 24.248ZM140.85 21.584V16.64H138.594V13.904H140.85V10.88H143.922V13.904H147.618V16.64H143.922V21.584C143.922 22.928 144.642 23.456 145.842 23.456C146.682 23.456 147.234 23.36 147.642 23.192V25.856C147.042 26.12 146.322 26.24 145.314 26.24C142.29 26.24 140.85 24.536 140.85 21.584Z" fill="black"/>
<path d="M5.12 45.16C4.23467 45.16 3.48267 44.9787 2.864 44.616C2.24533 44.2427 1.77067 43.736 1.44 43.096C1.12 42.4453 0.96 41.6987 0.96 40.856C0.96 39.9493 1.12533 39.096 1.456 38.296C1.78667 37.496 2.23467 36.7973 2.8 36.2C3.376 35.6027 4.032 35.1333 4.768 34.792C5.51467 34.4507 6.29867 34.28 7.12 34.28C7.728 34.28 8.24 34.3387 8.656 34.456C9.08267 34.5733 9.552 34.7707 10.064 35.048L9.648 37.848H9.392L8.752 35.864C8.48533 35.5867 8.21333 35.3787 7.936 35.24C7.66933 35.0907 7.33333 35.016 6.928 35.016C6.20267 35.016 5.56267 35.16 5.008 35.448C4.45333 35.736 3.984 36.136 3.6 36.648C3.22667 37.1493 2.93867 37.7253 2.736 38.376C2.544 39.016 2.448 39.6987 2.448 40.424C2.448 41.6827 2.736 42.664 3.312 43.368C3.89867 44.072 4.64533 44.424 5.552 44.424C6.01067 44.424 6.43733 44.3333 6.832 44.152C7.22667 43.9707 7.57867 43.7787 7.888 43.576L9.168 41.832H9.424L8.816 44.376C8.48533 44.536 8.144 44.6747 7.792 44.792C7.45067 44.9093 7.06667 45 6.64 45.064C6.21333 45.128 5.70667 45.16 5.12 45.16ZM12.3991 45H11.1831L13.0871 34.152L11.8391 33.592V33.496L14.4631 33.016H14.5111L13.4071 39.32H13.4391C13.8125 38.904 14.1378 38.5733 14.4151 38.328C14.7031 38.0827 14.9805 37.9067 15.2471 37.8C15.5245 37.6933 15.8338 37.64 16.1751 37.64C16.6978 37.64 17.0978 37.8533 17.3751 38.28C17.6631 38.7067 17.7431 39.2827 17.6151 40.008L17.0551 43.096C17.0018 43.416 16.9911 43.6453 17.0231 43.784C17.0551 43.9227 17.1458 43.992 17.2951 43.992C17.4765 43.992 17.6738 43.896 17.8871 43.704C18.1005 43.5013 18.3031 43.1973 18.4951 42.792L18.7031 42.888C18.3938 43.688 18.0578 44.2693 17.6951 44.632C17.3431 44.984 16.9805 45.16 16.6071 45.16C16.2338 45.16 15.9778 45.016 15.8391 44.728C15.7005 44.44 15.6738 44.056 15.7591 43.576L16.3831 40.056C16.4365 39.6827 16.3885 39.352 16.2391 39.064C16.1005 38.7653 15.7965 38.616 15.3271 38.616C15.0925 38.616 14.8525 38.696 14.6071 38.856C14.3618 39.0053 14.1218 39.192 13.8871 39.416C13.6525 39.6293 13.4498 39.832 13.2791 40.024L12.3991 45ZM20.9885 45.16C20.5618 45.16 20.2152 44.9787 19.9485 44.616C19.6925 44.2427 19.5645 43.688 19.5645 42.952C19.5645 42.2907 19.6658 41.6453 19.8685 41.016C20.0818 40.3867 20.3698 39.816 20.7325 39.304C21.1058 38.792 21.5325 38.3867 22.0125 38.088C22.4925 37.7893 23.0045 37.64 23.5485 37.64C23.8152 37.64 24.0712 37.672 24.3165 37.736C24.5618 37.8 24.7805 37.8853 24.9725 37.992L25.5325 37.64H25.9325L24.9565 43.096C24.9032 43.416 24.8925 43.6453 24.9245 43.784C24.9672 43.9227 25.0578 43.992 25.1965 43.992C25.3778 43.992 25.5752 43.896 25.7885 43.704C26.0018 43.5013 26.2045 43.1973 26.3965 42.792L26.6045 42.888C26.2952 43.688 25.9592 44.2693 25.5965 44.632C25.2445 44.984 24.8818 45.16 24.5085 45.16C24.1352 45.16 23.8792 45.016 23.7405 44.728C23.6018 44.44 23.5752 44.056 23.6605 43.576L23.7405 43.16H23.6765C23.2712 43.7787 22.8445 44.2693 22.3965 44.632C21.9485 44.984 21.4792 45.16 20.9885 45.16ZM20.7805 42.328C20.7805 42.9253 20.8445 43.3733 20.9725 43.672C21.1112 43.96 21.3672 44.104 21.7405 44.104C21.9965 44.104 22.2525 44.0187 22.5085 43.848C22.7645 43.6773 23.0098 43.4587 23.2445 43.192C23.4792 42.9253 23.6872 42.6533 23.8685 42.376L24.4605 39.08C24.2578 38.8133 24.0498 38.6107 23.8365 38.472C23.6338 38.3333 23.3832 38.264 23.0845 38.264C22.6258 38.264 22.2205 38.4613 21.8685 38.856C21.5272 39.2507 21.2605 39.7573 21.0685 40.376C20.8765 40.9947 20.7805 41.6453 20.7805 42.328ZM27.6099 45L28.7139 38.776L27.4659 38.216V38.12L29.7219 37.64H29.7699V39.608H29.8339C30.1752 38.9787 30.4632 38.5307 30.6979 38.264C30.9432 37.9867 31.1565 37.816 31.3379 37.752C31.5299 37.6773 31.7005 37.64 31.8499 37.64C32.0419 37.64 32.2179 37.704 32.3779 37.832C32.5379 37.9493 32.6179 38.088 32.6179 38.248C32.6179 38.3013 32.6019 38.36 32.5699 38.424L32.1699 39.24H32.0739L31.8979 39.112C31.8125 39.048 31.7165 39.0053 31.6099 38.984C31.5139 38.952 31.4179 38.936 31.3219 38.936C31.1299 38.936 30.9539 38.9787 30.7939 39.064C30.6445 39.1387 30.4739 39.304 30.2819 39.56C30.1005 39.8053 29.8659 40.1787 29.5779 40.68L28.8259 45H27.6099ZM35.5735 35.64C35.3282 35.64 35.1148 35.5493 34.9335 35.368C34.7522 35.1867 34.6615 34.9733 34.6615 34.728C34.6615 34.4827 34.7522 34.2693 34.9335 34.088C35.1148 33.9067 35.3282 33.816 35.5735 33.816C35.8188 33.816 36.0322 33.9067 36.2135 34.088C36.3948 34.2693 36.4855 34.4827 36.4855 34.728C36.4855 34.9733 36.3948 35.1867 36.2135 35.368C36.0322 35.5493 35.8188 35.64 35.5735 35.64ZM34.4375 45.16C34.0642 45.16 33.8082 45.016 33.6695 44.728C33.5308 44.44 33.5042 44.056 33.5895 43.576L34.4375 38.76L33.0455 38.216V38.12L35.8135 37.64H35.8615L34.8855 43.096C34.8322 43.416 34.8215 43.6453 34.8535 43.784C34.8855 43.9227 34.9762 43.992 35.1255 43.992C35.3068 43.992 35.5042 43.896 35.7175 43.704C35.9308 43.5013 36.1335 43.1973 36.3255 42.792L36.5335 42.888C36.2242 43.688 35.8882 44.2693 35.5255 44.632C35.1735 44.984 34.8108 45.16 34.4375 45.16ZM39.3029 45.16C38.7589 45.16 38.3162 45.0853 37.9749 44.936C37.6335 44.776 37.3882 44.5787 37.2389 44.344C37.1749 44.248 37.1322 44.168 37.1109 44.104C37.0895 44.04 37.0789 43.9707 37.0789 43.896C37.0789 43.832 37.0895 43.768 37.1109 43.704C37.1322 43.6293 37.1855 43.5707 37.2709 43.528L37.6229 43.336H37.7349L38.0069 43.8C38.1669 44.0667 38.3802 44.2693 38.6469 44.408C38.9135 44.536 39.1802 44.6 39.4469 44.6C39.8522 44.6 40.1829 44.4933 40.4389 44.28C40.7055 44.0667 40.8389 43.7573 40.8389 43.352C40.8389 42.936 40.7002 42.616 40.4229 42.392C40.1562 42.168 39.8522 41.9547 39.5109 41.752C39.1055 41.5067 38.8015 41.2827 38.5989 41.08C38.3962 40.8773 38.2575 40.6693 38.1829 40.456C38.1082 40.2427 38.0709 39.9867 38.0709 39.688C38.0709 39.3787 38.1882 39.0693 38.4229 38.76C38.6575 38.44 38.9669 38.1733 39.3509 37.96C39.7349 37.7467 40.1402 37.64 40.5669 37.64C41.0362 37.64 41.4042 37.7147 41.6709 37.864C41.9375 38.0027 42.1455 38.184 42.2949 38.408C42.3909 38.5573 42.4389 38.696 42.4389 38.824C42.4389 38.8987 42.4175 38.9733 42.3749 39.048C42.3429 39.1227 42.2895 39.1813 42.2149 39.224L41.9109 39.384H41.7989L41.4469 38.888C41.2975 38.6747 41.1269 38.5147 40.9349 38.408C40.7535 38.2907 40.5242 38.232 40.2469 38.232C39.9375 38.232 39.6709 38.328 39.4469 38.52C39.2335 38.7013 39.1269 38.9413 39.1269 39.24C39.1269 39.5813 39.2282 39.864 39.4309 40.088C39.6442 40.312 39.8895 40.504 40.1669 40.664C40.5509 40.888 40.8655 41.1013 41.1109 41.304C41.3669 41.5067 41.5589 41.736 41.6869 41.992C41.8149 42.248 41.8789 42.5733 41.8789 42.968C41.8789 43.3413 41.7669 43.6987 41.5429 44.04C41.3189 44.3707 41.0095 44.6427 40.6149 44.856C40.2309 45.0587 39.7935 45.16 39.3029 45.16ZM43.5318 45L44.6358 38.776L43.3878 38.216V38.12L45.6598 37.64H45.7078V39.32H45.7718C46.1451 38.904 46.4651 38.5733 46.7318 38.328C46.9984 38.0827 47.2598 37.9067 47.5158 37.8C47.7718 37.6933 48.0704 37.64 48.4118 37.64C48.8064 37.64 49.1318 37.7893 49.3878 38.088C49.6438 38.3867 49.7824 38.7973 49.8038 39.32H49.8838C50.2571 38.904 50.5771 38.5733 50.8438 38.328C51.1104 38.0827 51.3664 37.9067 51.6118 37.8C51.8678 37.6933 52.1718 37.64 52.5238 37.64C53.0038 37.64 53.3771 37.8533 53.6438 38.28C53.9104 38.7067 53.9798 39.2827 53.8518 40.008L53.2918 43.096C53.2384 43.416 53.2278 43.6453 53.2598 43.784C53.2918 43.9227 53.3824 43.992 53.5318 43.992C53.7131 43.992 53.9104 43.896 54.1238 43.704C54.3371 43.5013 54.5398 43.1973 54.7318 42.792L54.9398 42.888C54.6304 43.688 54.2944 44.2693 53.9318 44.632C53.5798 44.984 53.2171 45.16 52.8438 45.16C52.4704 45.16 52.2144 45.016 52.0758 44.728C51.9371 44.44 51.9104 44.056 51.9958 43.576L52.6198 40.056C52.6838 39.6827 52.6464 39.352 52.5078 39.064C52.3798 38.7653 52.1024 38.616 51.6758 38.616C51.4411 38.616 51.2064 38.696 50.9718 38.856C50.7478 39.0053 50.5291 39.192 50.3158 39.416C50.1024 39.6293 49.9104 39.832 49.7398 40.024L48.8438 45H47.6278L48.5078 40.056C48.5718 39.6827 48.5344 39.352 48.3958 39.064C48.2678 38.7653 47.9904 38.616 47.5638 38.616C47.3291 38.616 47.0944 38.696 46.8598 38.856C46.6251 39.016 46.3958 39.208 46.1718 39.432C45.9584 39.6453 45.7664 39.8533 45.5958 40.056L44.7478 45H43.5318ZM58.2465 45.16C57.4252 45.16 56.8225 44.936 56.4385 44.488C56.0545 44.0293 55.8625 43.4107 55.8625 42.632C55.8625 42.0027 55.9638 41.3947 56.1665 40.808C56.3798 40.2107 56.6678 39.6773 57.0305 39.208C57.4038 38.728 57.8305 38.3493 58.3105 38.072C58.8012 37.784 59.3292 37.64 59.8945 37.64C60.4278 37.64 60.8278 37.7627 61.0945 38.008C61.3718 38.2533 61.5105 38.5413 61.5105 38.872C61.5105 39.2347 61.3825 39.5707 61.1265 39.88C60.8705 40.1787 60.4225 40.456 59.7825 40.712C59.1532 40.9573 58.2625 41.176 57.1105 41.368C57.0892 41.5813 57.0785 41.8053 57.0785 42.04C57.0785 42.6907 57.2172 43.208 57.4945 43.592C57.7718 43.976 58.2092 44.168 58.8065 44.168C59.1585 44.168 59.5052 44.072 59.8465 43.88C60.1878 43.688 60.5398 43.3733 60.9025 42.936H60.9345L61.0945 43.064C60.7318 43.6933 60.2945 44.2 59.7825 44.584C59.2812 44.968 58.7692 45.16 58.2465 45.16ZM59.4625 38.2C58.8865 38.2 58.3958 38.44 57.9905 38.92C57.5958 39.3893 57.3292 40.0133 57.1905 40.792C57.9905 40.6533 58.6145 40.504 59.0625 40.344C59.5105 40.184 59.8252 39.9973 60.0065 39.784C60.1878 39.56 60.2785 39.2827 60.2785 38.952C60.2785 38.7387 60.2092 38.5627 60.0705 38.424C59.9318 38.2747 59.7292 38.2 59.4625 38.2Z" fill="black"/>
<path d="M73.16 45L73.208 44.744L74.536 44.104L76.072 35.336L74.968 34.696L75.016 34.44H78.52C79.704 34.44 80.6533 34.648 81.368 35.064C82.0933 35.48 82.456 36.1413 82.456 37.048C82.456 37.6133 82.2693 38.1467 81.896 38.648C81.5333 39.1387 81.0053 39.5387 80.312 39.848C79.6187 40.1573 78.7973 40.312 77.848 40.312H76.568L75.896 44.104L77.16 44.744L77.112 45H73.16ZM77.464 35.24L76.712 39.512H78.216C79.144 39.512 79.832 39.2933 80.28 38.856C80.728 38.408 80.952 37.8427 80.952 37.16C80.952 36.488 80.7333 36.0027 80.296 35.704C79.8587 35.3947 79.24 35.24 78.44 35.24H77.464ZM85.8169 45.16C84.8889 45.16 84.2009 44.872 83.7529 44.296C83.3155 43.72 83.0969 42.9733 83.0969 42.056C83.0969 41.5547 83.1875 41.048 83.3689 40.536C83.5502 40.0133 83.8115 39.5333 84.1529 39.096C84.4942 38.6587 84.8995 38.3067 85.3689 38.04C85.8382 37.7733 86.3555 37.64 86.9209 37.64C87.8489 37.64 88.5315 37.928 88.9689 38.504C89.4169 39.08 89.6409 39.8267 89.6409 40.744C89.6409 41.224 89.5502 41.7253 89.3689 42.248C89.1982 42.76 88.9422 43.24 88.6009 43.688C88.2702 44.1253 87.8702 44.4827 87.4009 44.76C86.9315 45.0267 86.4035 45.16 85.8169 45.16ZM85.9929 44.552C86.4515 44.552 86.8515 44.376 87.1929 44.024C87.5342 43.6613 87.7955 43.1867 87.9769 42.6C88.1582 42.0027 88.2489 41.352 88.2489 40.648C88.2489 39.8587 88.1422 39.2613 87.9289 38.856C87.7262 38.44 87.3422 38.232 86.7769 38.232C86.3289 38.232 85.9289 38.3973 85.5769 38.728C85.2355 39.048 84.9689 39.496 84.7769 40.072C84.5849 40.648 84.4889 41.3253 84.4889 42.104C84.4889 42.8933 84.5955 43.5013 84.8089 43.928C85.0222 44.344 85.4169 44.552 85.9929 44.552ZM90.0055 48.68V48.424L90.8855 47.976L92.5175 38.776L91.2695 38.216V38.12L93.5415 37.64H93.5895V39.64H93.6535C94.0482 39.0213 94.4695 38.536 94.9175 38.184C95.3762 37.8213 95.8508 37.64 96.3415 37.64C96.7682 37.64 97.1095 37.8267 97.3655 38.2C97.6322 38.5733 97.7655 39.1227 97.7655 39.848C97.7655 40.5093 97.6588 41.1547 97.4455 41.784C97.2428 42.4133 96.9548 42.984 96.5815 43.496C96.2188 44.008 95.7975 44.4133 95.3175 44.712C94.8375 45.0107 94.3255 45.16 93.7815 45.16C93.5788 45.16 93.3815 45.1387 93.1895 45.096C92.9975 45.064 92.8215 45.016 92.6615 44.952L92.1655 47.96L93.4455 48.424V48.68H90.0055ZM95.5895 38.696C95.3335 38.696 95.0775 38.7813 94.8215 38.952C94.5655 39.1227 94.3202 39.3413 94.0855 39.608C93.8508 39.8747 93.6375 40.152 93.4455 40.44L92.8855 43.688C93.0882 43.9653 93.2855 44.1787 93.4775 44.328C93.6802 44.4667 93.9362 44.536 94.2455 44.536C94.7042 44.536 95.1042 44.3387 95.4455 43.944C95.7975 43.5493 96.0695 43.0427 96.2615 42.424C96.4535 41.8053 96.5495 41.1547 96.5495 40.472C96.5495 39.8747 96.4802 39.432 96.3415 39.144C96.2135 38.8453 95.9628 38.696 95.5895 38.696ZM100.95 45.16C100.556 45.16 100.23 45.0053 99.9743 44.696C99.7289 44.3867 99.6063 43.9653 99.6063 43.432C99.6063 43.3253 99.6116 43.2187 99.6223 43.112C99.6436 43.0053 99.6596 42.8987 99.6703 42.792L100.39 38.776L99.1423 38.216V38.12L101.702 37.64H101.766L100.934 42.536C100.892 42.8027 100.87 42.9947 100.87 43.112C100.87 43.4107 100.94 43.6667 101.078 43.88C101.228 44.0827 101.468 44.184 101.798 44.184C102.022 44.184 102.246 44.104 102.47 43.944C102.705 43.784 102.929 43.592 103.142 43.368C103.356 43.144 103.548 42.936 103.718 42.744L104.406 38.776L103.302 38.216V38.12L105.734 37.64H105.798L104.838 43.096C104.785 43.416 104.774 43.6453 104.806 43.784C104.849 43.9227 104.95 43.992 105.11 43.992C105.292 43.992 105.489 43.896 105.702 43.704C105.916 43.5013 106.118 43.1973 106.31 42.792L106.518 42.888C106.209 43.688 105.873 44.2693 105.51 44.632C105.158 44.984 104.796 45.16 104.422 45.16C104.049 45.16 103.793 45.016 103.654 44.728C103.526 44.44 103.5 44.056 103.574 43.576L103.59 43.48H103.542C103.18 43.8853 102.865 44.2107 102.598 44.456C102.332 44.7013 102.07 44.8827 101.814 45C101.569 45.1067 101.281 45.16 100.95 45.16ZM108.382 45.16C108.008 45.16 107.752 45.016 107.614 44.728C107.475 44.44 107.448 44.056 107.534 43.576L109.182 34.12L107.79 33.576V33.48L110.558 33H110.606L108.83 43.096C108.776 43.416 108.766 43.6453 108.798 43.784C108.83 43.9227 108.92 43.992 109.07 43.992C109.251 43.992 109.448 43.896 109.662 43.704C109.875 43.5013 110.078 43.1973 110.27 42.792L110.478 42.888C110.168 43.688 109.832 44.2693 109.47 44.632C109.118 44.984 108.755 45.16 108.382 45.16ZM114.027 35.64C113.781 35.64 113.568 35.5493 113.387 35.368C113.205 35.1867 113.115 34.9733 113.115 34.728C113.115 34.4827 113.205 34.2693 113.387 34.088C113.568 33.9067 113.781 33.816 114.027 33.816C114.272 33.816 114.485 33.9067 114.667 34.088C114.848 34.2693 114.939 34.4827 114.939 34.728C114.939 34.9733 114.848 35.1867 114.667 35.368C114.485 35.5493 114.272 35.64 114.027 35.64ZM112.891 45.16C112.517 45.16 112.261 45.016 112.123 44.728C111.984 44.44 111.957 44.056 112.043 43.576L112.891 38.76L111.499 38.216V38.12L114.267 37.64H114.315L113.339 43.096C113.285 43.416 113.275 43.6453 113.307 43.784C113.339 43.9227 113.429 43.992 113.579 43.992C113.76 43.992 113.957 43.896 114.171 43.704C114.384 43.5013 114.587 43.1973 114.779 42.792L114.987 42.888C114.677 43.688 114.341 44.2693 113.979 44.632C113.627 44.984 113.264 45.16 112.891 45.16ZM117.756 45.16C117.212 45.16 116.769 45.0853 116.428 44.936C116.087 44.776 115.841 44.5787 115.692 44.344C115.628 44.248 115.585 44.168 115.564 44.104C115.543 44.04 115.532 43.9707 115.532 43.896C115.532 43.832 115.543 43.768 115.564 43.704C115.585 43.6293 115.639 43.5707 115.724 43.528L116.076 43.336H116.188L116.46 43.8C116.62 44.0667 116.833 44.2693 117.1 44.408C117.367 44.536 117.633 44.6 117.9 44.6C118.305 44.6 118.636 44.4933 118.892 44.28C119.159 44.0667 119.292 43.7573 119.292 43.352C119.292 42.936 119.153 42.616 118.876 42.392C118.609 42.168 118.305 41.9547 117.964 41.752C117.559 41.5067 117.255 41.2827 117.052 41.08C116.849 40.8773 116.711 40.6693 116.636 40.456C116.561 40.2427 116.524 39.9867 116.524 39.688C116.524 39.3787 116.641 39.0693 116.876 38.76C117.111 38.44 117.42 38.1733 117.804 37.96C118.188 37.7467 118.593 37.64 119.02 37.64C119.489 37.64 119.857 37.7147 120.124 37.864C120.391 38.0027 120.599 38.184 120.748 38.408C120.844 38.5573 120.892 38.696 120.892 38.824C120.892 38.8987 120.871 38.9733 120.828 39.048C120.796 39.1227 120.743 39.1813 120.668 39.224L120.364 39.384H120.252L119.9 38.888C119.751 38.6747 119.58 38.5147 119.388 38.408C119.207 38.2907 118.977 38.232 118.7 38.232C118.391 38.232 118.124 38.328 117.9 38.52C117.687 38.7013 117.58 38.9413 117.58 39.24C117.58 39.5813 117.681 39.864 117.884 40.088C118.097 40.312 118.343 40.504 118.62 40.664C119.004 40.888 119.319 41.1013 119.564 41.304C119.82 41.5067 120.012 41.736 120.14 41.992C120.268 42.248 120.332 42.5733 120.332 42.968C120.332 43.3413 120.22 43.6987 119.996 44.04C119.772 44.3707 119.463 44.6427 119.068 44.856C118.684 45.0587 118.247 45.16 117.756 45.16ZM121.985 45L123.089 38.776L121.841 38.216V38.12L124.113 37.64H124.161V39.32H124.225C124.598 38.904 124.918 38.5733 125.185 38.328C125.452 38.0827 125.713 37.9067 125.969 37.8C126.225 37.6933 126.524 37.64 126.865 37.64C127.26 37.64 127.585 37.7893 127.841 38.088C128.097 38.3867 128.236 38.7973 128.257 39.32H128.337C128.71 38.904 129.03 38.5733 129.297 38.328C129.564 38.0827 129.82 37.9067 130.065 37.8C130.321 37.6933 130.625 37.64 130.977 37.64C131.457 37.64 131.83 37.8533 132.097 38.28C132.364 38.7067 132.433 39.2827 132.305 40.008L131.745 43.096C131.692 43.416 131.681 43.6453 131.713 43.784C131.745 43.9227 131.836 43.992 131.985 43.992C132.166 43.992 132.364 43.896 132.577 43.704C132.79 43.5013 132.993 43.1973 133.185 42.792L133.393 42.888C133.084 43.688 132.748 44.2693 132.385 44.632C132.033 44.984 131.67 45.16 131.297 45.16C130.924 45.16 130.668 45.016 130.529 44.728C130.39 44.44 130.364 44.056 130.449 43.576L131.073 40.056C131.137 39.6827 131.1 39.352 130.961 39.064C130.833 38.7653 130.556 38.616 130.129 38.616C129.894 38.616 129.66 38.696 129.425 38.856C129.201 39.0053 128.982 39.192 128.769 39.416C128.556 39.6293 128.364 39.832 128.193 40.024L127.297 45H126.081L126.961 40.056C127.025 39.6827 126.988 39.352 126.849 39.064C126.721 38.7653 126.444 38.616 126.017 38.616C125.782 38.616 125.548 38.696 125.313 38.856C125.078 39.016 124.849 39.208 124.625 39.432C124.412 39.6453 124.22 39.8533 124.049 40.056L123.201 45H121.985ZM136.7 45.16C135.878 45.16 135.276 44.936 134.892 44.488C134.508 44.0293 134.316 43.4107 134.316 42.632C134.316 42.0027 134.417 41.3947 134.62 40.808C134.833 40.2107 135.121 39.6773 135.484 39.208C135.857 38.728 136.284 38.3493 136.764 38.072C137.254 37.784 137.782 37.64 138.348 37.64C138.881 37.64 139.281 37.7627 139.548 38.008C139.825 38.2533 139.964 38.5413 139.964 38.872C139.964 39.2347 139.836 39.5707 139.58 39.88C139.324 40.1787 138.876 40.456 138.236 40.712C137.606 40.9573 136.716 41.176 135.564 41.368C135.542 41.5813 135.532 41.8053 135.532 42.04C135.532 42.6907 135.67 43.208 135.948 43.592C136.225 43.976 136.662 44.168 137.26 44.168C137.612 44.168 137.958 44.072 138.3 43.88C138.641 43.688 138.993 43.3733 139.356 42.936H139.388L139.548 43.064C139.185 43.6933 138.748 44.2 138.236 44.584C137.734 44.968 137.222 45.16 136.7 45.16ZM137.916 38.2C137.34 38.2 136.849 38.44 136.444 38.92C136.049 39.3893 135.782 40.0133 135.644 40.792C136.444 40.6533 137.068 40.504 137.516 40.344C137.964 40.184 138.278 39.9973 138.46 39.784C138.641 39.56 138.732 39.2827 138.732 38.952C138.732 38.7387 138.662 38.5627 138.524 38.424C138.385 38.2747 138.182 38.2 137.916 38.2Z" fill="black"/>
<path d="M156.312 45.16C155.437 45.16 154.675 44.9627 154.024 44.568C153.373 44.1733 152.867 43.624 152.504 42.92C152.141 42.216 151.96 41.4053 151.96 40.488C151.96 39.688 152.109 38.9147 152.408 38.168C152.707 37.4213 153.123 36.7547 153.656 36.168C154.2 35.5813 154.835 35.1173 155.56 34.776C156.285 34.4347 157.075 34.264 157.928 34.264C158.813 34.264 159.581 34.4613 160.232 34.856C160.883 35.2507 161.389 35.8053 161.752 36.52C162.115 37.224 162.296 38.0347 162.296 38.952C162.296 39.7413 162.147 40.504 161.848 41.24C161.56 41.976 161.149 42.6427 160.616 43.24C160.083 43.8267 159.448 44.296 158.712 44.648C157.987 44.9893 157.187 45.16 156.312 45.16ZM156.824 44.392C157.421 44.392 157.965 44.2533 158.456 43.976C158.947 43.6987 159.368 43.3147 159.72 42.824C160.083 42.3227 160.36 41.7573 160.552 41.128C160.755 40.488 160.856 39.8053 160.856 39.08C160.856 38.2693 160.712 37.56 160.424 36.952C160.147 36.344 159.752 35.8693 159.24 35.528C158.739 35.176 158.157 35 157.496 35C156.707 35 156.003 35.24 155.384 35.72C154.765 36.1893 154.28 36.8293 153.928 37.64C153.587 38.44 153.416 39.336 153.416 40.328C153.416 41.128 153.56 41.8373 153.848 42.456C154.136 43.064 154.531 43.5387 155.032 43.88C155.544 44.2213 156.141 44.392 156.824 44.392ZM162.818 48.68V48.424L163.698 47.976L165.33 38.776L164.082 38.216V38.12L166.354 37.64H166.402V39.64H166.466C166.861 39.0213 167.282 38.536 167.73 38.184C168.189 37.8213 168.663 37.64 169.154 37.64C169.581 37.64 169.922 37.8267 170.178 38.2C170.445 38.5733 170.578 39.1227 170.578 39.848C170.578 40.5093 170.471 41.1547 170.258 41.784C170.055 42.4133 169.767 42.984 169.394 43.496C169.031 44.008 168.61 44.4133 168.13 44.712C167.65 45.0107 167.138 45.16 166.594 45.16C166.391 45.16 166.194 45.1387 166.002 45.096C165.81 45.064 165.634 45.016 165.474 44.952L164.978 47.96L166.258 48.424V48.68H162.818ZM168.402 38.696C168.146 38.696 167.89 38.7813 167.634 38.952C167.378 39.1227 167.133 39.3413 166.898 39.608C166.663 39.8747 166.45 40.152 166.258 40.44L165.698 43.688C165.901 43.9653 166.098 44.1787 166.29 44.328C166.493 44.4667 166.749 44.536 167.058 44.536C167.517 44.536 167.917 44.3387 168.258 43.944C168.61 43.5493 168.882 43.0427 169.074 42.424C169.266 41.8053 169.362 41.1547 169.362 40.472C169.362 39.8747 169.293 39.432 169.154 39.144C169.026 38.8453 168.775 38.696 168.402 38.696ZM170.943 48.68V48.424L171.823 47.976L173.455 38.776L172.207 38.216V38.12L174.479 37.64H174.527V39.64H174.591C174.986 39.0213 175.407 38.536 175.855 38.184C176.314 37.8213 176.788 37.64 177.279 37.64C177.706 37.64 178.047 37.8267 178.303 38.2C178.57 38.5733 178.703 39.1227 178.703 39.848C178.703 40.5093 178.596 41.1547 178.383 41.784C178.18 42.4133 177.892 42.984 177.519 43.496C177.156 44.008 176.735 44.4133 176.255 44.712C175.775 45.0107 175.263 45.16 174.719 45.16C174.516 45.16 174.319 45.1387 174.127 45.096C173.935 45.064 173.759 45.016 173.599 44.952L173.103 47.96L174.383 48.424V48.68H170.943ZM176.527 38.696C176.271 38.696 176.015 38.7813 175.759 38.952C175.503 39.1227 175.258 39.3413 175.023 39.608C174.788 39.8747 174.575 40.152 174.383 40.44L173.823 43.688C174.026 43.9653 174.223 44.1787 174.415 44.328C174.618 44.4667 174.874 44.536 175.183 44.536C175.642 44.536 176.042 44.3387 176.383 43.944C176.735 43.5493 177.007 43.0427 177.199 42.424C177.391 41.8053 177.487 41.1547 177.487 40.472C177.487 39.8747 177.418 39.432 177.279 39.144C177.151 38.8453 176.9 38.696 176.527 38.696ZM182.864 45.16C181.936 45.16 181.248 44.872 180.8 44.296C180.362 43.72 180.144 42.9733 180.144 42.056C180.144 41.5547 180.234 41.048 180.416 40.536C180.597 40.0133 180.858 39.5333 181.2 39.096C181.541 38.6587 181.946 38.3067 182.416 38.04C182.885 37.7733 183.402 37.64 183.968 37.64C184.896 37.64 185.578 37.928 186.016 38.504C186.464 39.08 186.688 39.8267 186.688 40.744C186.688 41.224 186.597 41.7253 186.416 42.248C186.245 42.76 185.989 43.24 185.648 43.688C185.317 44.1253 184.917 44.4827 184.448 44.76C183.978 45.0267 183.45 45.16 182.864 45.16ZM183.04 44.552C183.498 44.552 183.898 44.376 184.24 44.024C184.581 43.6613 184.842 43.1867 185.024 42.6C185.205 42.0027 185.296 41.352 185.296 40.648C185.296 39.8587 185.189 39.2613 184.976 38.856C184.773 38.44 184.389 38.232 183.824 38.232C183.376 38.232 182.976 38.3973 182.624 38.728C182.282 39.048 182.016 39.496 181.824 40.072C181.632 40.648 181.536 41.3253 181.536 42.104C181.536 42.8933 181.642 43.5013 181.856 43.928C182.069 44.344 182.464 44.552 183.04 44.552ZM188.172 45L189.276 38.776L188.028 38.216V38.12L190.284 37.64H190.332V39.608H190.396C190.738 38.9787 191.026 38.5307 191.26 38.264C191.506 37.9867 191.719 37.816 191.9 37.752C192.092 37.6773 192.263 37.64 192.412 37.64C192.604 37.64 192.78 37.704 192.94 37.832C193.1 37.9493 193.18 38.088 193.18 38.248C193.18 38.3013 193.164 38.36 193.132 38.424L192.732 39.24H192.636L192.46 39.112C192.375 39.048 192.279 39.0053 192.172 38.984C192.076 38.952 191.98 38.936 191.884 38.936C191.692 38.936 191.516 38.9787 191.356 39.064C191.207 39.1387 191.036 39.304 190.844 39.56C190.663 39.8053 190.428 40.1787 190.14 40.68L189.388 45H188.172ZM195.096 45.16C194.744 45.16 194.477 45.048 194.296 44.824C194.115 44.6 194.024 44.2853 194.024 43.88C194.024 43.7947 194.029 43.6987 194.04 43.592C194.051 43.4853 194.067 43.3787 194.088 43.272L194.936 38.504H193.752V38.408L195.112 37.8L196.488 36.04H196.584L196.28 37.8H198.28V38.504H196.152L195.432 42.568C195.411 42.7067 195.395 42.8347 195.384 42.952C195.373 43.0587 195.368 43.1547 195.368 43.24C195.368 43.496 195.411 43.6773 195.496 43.784C195.581 43.8907 195.693 43.944 195.832 43.944C196.077 43.944 196.339 43.8053 196.616 43.528C196.904 43.2507 197.165 42.8507 197.4 42.328L197.608 42.424C197.256 43.4373 196.861 44.1467 196.424 44.552C195.997 44.9573 195.555 45.16 195.096 45.16ZM200.575 45.16C200.181 45.16 199.855 45.0053 199.599 44.696C199.354 44.3867 199.231 43.9653 199.231 43.432C199.231 43.3253 199.237 43.2187 199.247 43.112C199.269 43.0053 199.285 42.8987 199.295 42.792L200.015 38.776L198.767 38.216V38.12L201.327 37.64H201.391L200.559 42.536C200.517 42.8027 200.495 42.9947 200.495 43.112C200.495 43.4107 200.565 43.6667 200.703 43.88C200.853 44.0827 201.093 44.184 201.423 44.184C201.647 44.184 201.871 44.104 202.095 43.944C202.33 43.784 202.554 43.592 202.767 43.368C202.981 43.144 203.173 42.936 203.343 42.744L204.031 38.776L202.927 38.216V38.12L205.359 37.64H205.423L204.463 43.096C204.41 43.416 204.399 43.6453 204.431 43.784C204.474 43.9227 204.575 43.992 204.735 43.992C204.917 43.992 205.114 43.896 205.327 43.704C205.541 43.5013 205.743 43.1973 205.935 42.792L206.143 42.888C205.834 43.688 205.498 44.2693 205.135 44.632C204.783 44.984 204.421 45.16 204.047 45.16C203.674 45.16 203.418 45.016 203.279 44.728C203.151 44.44 203.125 44.056 203.199 43.576L203.215 43.48H203.167C202.805 43.8853 202.49 44.2107 202.223 44.456C201.957 44.7013 201.695 44.8827 201.439 45C201.194 45.1067 200.906 45.16 200.575 45.16ZM207.079 45L208.183 38.776L206.935 38.216V38.12L209.207 37.64H209.255V39.32H209.319C209.692 38.904 210.023 38.5733 210.311 38.328C210.599 38.0827 210.876 37.9067 211.143 37.8C211.409 37.6933 211.719 37.64 212.071 37.64C212.593 37.64 212.993 37.8533 213.271 38.28C213.559 38.7067 213.639 39.2827 213.511 40.008L212.951 43.096C212.897 43.416 212.887 43.6453 212.919 43.784C212.961 43.9227 213.052 43.992 213.191 43.992C213.372 43.992 213.569 43.896 213.783 43.704C213.996 43.5013 214.199 43.1973 214.391 42.792L214.599 42.888C214.289 43.688 213.953 44.2693 213.591 44.632C213.239 44.984 212.876 45.16 212.503 45.16C212.129 45.16 211.873 45.016 211.735 44.728C211.596 44.44 211.569 44.056 211.655 43.576L212.279 40.056C212.332 39.6827 212.284 39.352 212.135 39.064C211.996 38.7653 211.692 38.616 211.223 38.616C210.988 38.616 210.743 38.696 210.487 38.856C210.241 39.016 210.001 39.208 209.767 39.432C209.532 39.6453 209.324 39.8533 209.143 40.056L208.295 45H207.079ZM218.011 35.64C217.766 35.64 217.552 35.5493 217.371 35.368C217.19 35.1867 217.099 34.9733 217.099 34.728C217.099 34.4827 217.19 34.2693 217.371 34.088C217.552 33.9067 217.766 33.816 218.011 33.816C218.256 33.816 218.47 33.9067 218.651 34.088C218.832 34.2693 218.923 34.4827 218.923 34.728C218.923 34.9733 218.832 35.1867 218.651 35.368C218.47 35.5493 218.256 35.64 218.011 35.64ZM216.875 45.16C216.502 45.16 216.246 45.016 216.107 44.728C215.968 44.44 215.942 44.056 216.027 43.576L216.875 38.76L215.483 38.216V38.12L218.251 37.64H218.299L217.323 43.096C217.27 43.416 217.259 43.6453 217.291 43.784C217.323 43.9227 217.414 43.992 217.563 43.992C217.744 43.992 217.942 43.896 218.155 43.704C218.368 43.5013 218.571 43.1973 218.763 42.792L218.971 42.888C218.662 43.688 218.326 44.2693 217.963 44.632C217.611 44.984 217.248 45.16 216.875 45.16ZM221.74 45.16C221.196 45.16 220.754 45.0853 220.412 44.936C220.071 44.776 219.826 44.5787 219.676 44.344C219.612 44.248 219.57 44.168 219.548 44.104C219.527 44.04 219.516 43.9707 219.516 43.896C219.516 43.832 219.527 43.768 219.548 43.704C219.57 43.6293 219.623 43.5707 219.708 43.528L220.06 43.336H220.172L220.444 43.8C220.604 44.0667 220.818 44.2693 221.084 44.408C221.351 44.536 221.618 44.6 221.884 44.6C222.29 44.6 222.62 44.4933 222.876 44.28C223.143 44.0667 223.276 43.7573 223.276 43.352C223.276 42.936 223.138 42.616 222.86 42.392C222.594 42.168 222.29 41.9547 221.948 41.752C221.543 41.5067 221.239 41.2827 221.036 41.08C220.834 40.8773 220.695 40.6693 220.62 40.456C220.546 40.2427 220.508 39.9867 220.508 39.688C220.508 39.3787 220.626 39.0693 220.86 38.76C221.095 38.44 221.404 38.1733 221.788 37.96C222.172 37.7467 222.578 37.64 223.004 37.64C223.474 37.64 223.842 37.7147 224.108 37.864C224.375 38.0027 224.583 38.184 224.732 38.408C224.828 38.5573 224.876 38.696 224.876 38.824C224.876 38.8987 224.855 38.9733 224.812 39.048C224.78 39.1227 224.727 39.1813 224.652 39.224L224.348 39.384H224.236L223.884 38.888C223.735 38.6747 223.564 38.5147 223.372 38.408C223.191 38.2907 222.962 38.232 222.684 38.232C222.375 38.232 222.108 38.328 221.884 38.52C221.671 38.7013 221.564 38.9413 221.564 39.24C221.564 39.5813 221.666 39.864 221.868 40.088C222.082 40.312 222.327 40.504 222.604 40.664C222.988 40.888 223.303 41.1013 223.548 41.304C223.804 41.5067 223.996 41.736 224.124 41.992C224.252 42.248 224.316 42.5733 224.316 42.968C224.316 43.3413 224.204 43.6987 223.98 44.04C223.756 44.3707 223.447 44.6427 223.052 44.856C222.668 45.0587 222.231 45.16 221.74 45.16ZM225.969 45L227.073 38.776L225.825 38.216V38.12L228.097 37.64H228.145V39.32H228.209C228.583 38.904 228.903 38.5733 229.169 38.328C229.436 38.0827 229.697 37.9067 229.953 37.8C230.209 37.6933 230.508 37.64 230.849 37.64C231.244 37.64 231.569 37.7893 231.825 38.088C232.081 38.3867 232.22 38.7973 232.241 39.32H232.321C232.695 38.904 233.015 38.5733 233.281 38.328C233.548 38.0827 233.804 37.9067 234.049 37.8C234.305 37.6933 234.609 37.64 234.961 37.64C235.441 37.64 235.815 37.8533 236.081 38.28C236.348 38.7067 236.417 39.2827 236.289 40.008L235.729 43.096C235.676 43.416 235.665 43.6453 235.697 43.784C235.729 43.9227 235.82 43.992 235.969 43.992C236.151 43.992 236.348 43.896 236.561 43.704C236.775 43.5013 236.977 43.1973 237.169 42.792L237.377 42.888C237.068 43.688 236.732 44.2693 236.369 44.632C236.017 44.984 235.655 45.16 235.281 45.16C234.908 45.16 234.652 45.016 234.513 44.728C234.375 44.44 234.348 44.056 234.433 43.576L235.057 40.056C235.121 39.6827 235.084 39.352 234.945 39.064C234.817 38.7653 234.54 38.616 234.113 38.616C233.879 38.616 233.644 38.696 233.409 38.856C233.185 39.0053 232.967 39.192 232.753 39.416C232.54 39.6293 232.348 39.832 232.177 40.024L231.281 45H230.065L230.945 40.056C231.009 39.6827 230.972 39.352 230.833 39.064C230.705 38.7653 230.428 38.616 230.001 38.616C229.767 38.616 229.532 38.696 229.297 38.856C229.063 39.016 228.833 39.208 228.609 39.432C228.396 39.6453 228.204 39.8533 228.033 40.056L227.185 45H225.969ZM240.684 45.16C239.863 45.16 239.26 44.936 238.876 44.488C238.492 44.0293 238.3 43.4107 238.3 42.632C238.3 42.0027 238.401 41.3947 238.604 40.808C238.817 40.2107 239.105 39.6773 239.468 39.208C239.841 38.728 240.268 38.3493 240.748 38.072C241.239 37.784 241.767 37.64 242.332 37.64C242.865 37.64 243.265 37.7627 243.532 38.008C243.809 38.2533 243.948 38.5413 243.948 38.872C243.948 39.2347 243.82 39.5707 243.564 39.88C243.308 40.1787 242.86 40.456 242.22 40.712C241.591 40.9573 240.7 41.176 239.548 41.368C239.527 41.5813 239.516 41.8053 239.516 42.04C239.516 42.6907 239.655 43.208 239.932 43.592C240.209 43.976 240.647 44.168 241.244 44.168C241.596 44.168 241.943 44.072 242.284 43.88C242.625 43.688 242.977 43.3733 243.34 42.936H243.372L243.532 43.064C243.169 43.6933 242.732 44.2 242.22 44.584C241.719 44.968 241.207 45.16 240.684 45.16ZM241.9 38.2C241.324 38.2 240.833 38.44 240.428 38.92C240.033 39.3893 239.767 40.0133 239.628 40.792C240.428 40.6533 241.052 40.504 241.5 40.344C241.948 40.184 242.263 39.9973 242.444 39.784C242.625 39.56 242.716 39.2827 242.716 38.952C242.716 38.7387 242.647 38.5627 242.508 38.424C242.369 38.2747 242.167 38.2 241.9 38.2Z" fill="black"/>
</svg>
